<?xml version="1.0" encoding="UTF-8" standalone="no"?>
<!DOCTYPE svg PUBLIC "-//W3C//DTD SVG 1.1//EN"
 "http://www.w3.org/Graphics/SVG/1.1/DTD/svg11.dtd">
<!-- Generated by graphviz version 8.0.1 (20230327.1645)
 -->
<!-- Title: dependency&#45;cruiser output Pages: 1 -->
<svg width="663pt" height="518pt"
 viewBox="0.00 0.00 663.00 517.59" xmlns="http://www.w3.org/2000/svg" xmlns:xlink="http://www.w3.org/1999/xlink">
<g id="graph0" class="graph" transform="scale(1 1) rotate(0) translate(4 513.59)">
<title>dependency&#45;cruiser output</title>
<polygon fill="white" stroke="none" points="-4,4 -4,-513.59 659,-513.59 659,4 -4,4"/>
<g id="clust7" class="cluster">
<title>cluster_cases</title>
<path fill="#ffffff" stroke="black" stroke-width="2" d="M20,-436.59C20,-436.59 66,-436.59 66,-436.59 72,-436.59 78,-442.59 78,-448.59 78,-448.59 78,-476.59 78,-476.59 78,-482.59 72,-488.59 66,-488.59 66,-488.59 20,-488.59 20,-488.59 14,-488.59 8,-482.59 8,-476.59 8,-476.59 8,-448.59 8,-448.59 8,-442.59 14,-436.59 20,-436.59"/>
<text text-anchor="middle" x="43" y="-477.39" font-family="Helvetica,sans-Serif" font-weight="bold" font-size="9.00">cases</text>
</g>
<g id="clust8" class="cluster">
<title>cluster_configs</title>
<path fill="#ffffff" stroke="black" stroke-width="2" d="M377.5,-425.59C377.5,-425.59 525,-425.59 525,-425.59 531,-425.59 537,-431.59 537,-437.59 537,-437.59 537,-465.59 537,-465.59 537,-471.59 531,-477.59 525,-477.59 525,-477.59 377.5,-477.59 377.5,-477.59 371.5,-477.59 365.5,-471.59 365.5,-465.59 365.5,-465.59 365.5,-437.59 365.5,-437.59 365.5,-431.59 371.5,-425.59 377.5,-425.59"/>
<text text-anchor="middle" x="451.25" y="-466.39" font-family="Helvetica,sans-Serif" font-weight="bold" font-size="9.00">configs</text>
</g>
<g id="clust9" class="cluster">
<title>cluster_node_modules</title>
<path fill="#ffffff" stroke="black" stroke-width="2" d="M557,-261.59C557,-261.59 635,-261.59 635,-261.59 641,-261.59 647,-267.59 647,-273.59 647,-273.59 647,-489.59 647,-489.59 647,-495.59 641,-501.59 635,-501.59 635,-501.59 557,-501.59 557,-501.59 551,-501.59 545,-495.59 545,-489.59 545,-489.59 545,-273.59 545,-273.59 545,-267.59 551,-261.59 557,-261.59"/>
<text text-anchor="middle" x="596" y="-490.39" font-family="Helvetica,sans-Serif" font-weight="bold" font-size="9.00">node_modules</text>
</g>
<g id="clust10" class="cluster">
<title>cluster_node_modules/dotenv</title>
<path fill="#ffffff" stroke="black" stroke-width="2" d="M565,-389.59C565,-389.59 627,-389.59 627,-389.59 633,-389.59 639,-395.59 639,-401.59 639,-401.59 639,-463.59 639,-463.59 639,-469.59 633,-475.59 627,-475.59 627,-475.59 565,-475.59 565,-475.59 559,-475.59 553,-469.59 553,-463.59 553,-463.59 553,-401.59 553,-401.59 553,-395.59 559,-389.59 565,-389.59"/>
<text text-anchor="middle" x="596" y="-464.39" font-family="Helvetica,sans-Serif" font-weight="bold" font-size="9.00">dotenv</text>
</g>
<g id="clust11" class="cluster">
<title>cluster_node_modules/dotenv/lib</title>
<path fill="#ffffff" stroke="black" stroke-width="2" d="M573,-397.59C573,-397.59 619,-397.59 619,-397.59 625,-397.59 631,-403.59 631,-409.59 631,-409.59 631,-437.59 631,-437.59 631,-443.59 625,-449.59 619,-449.59 619,-449.59 573,-449.59 573,-449.59 567,-449.59 561,-443.59 561,-437.59 561,-437.59 561,-409.59 561,-409.59 561,-403.59 567,-397.59 573,-397.59"/>
<text text-anchor="middle" x="596" y="-438.39" font-family="Helvetica,sans-Serif" font-weight="bold" font-size="9.00">lib</text>
</g>
<g id="clust12" class="cluster">
<title>cluster_node_modules/mssql</title>
<path fill="#ffffff" stroke="black" stroke-width="2" d="M573,-269.59C573,-269.59 619,-269.59 619,-269.59 625,-269.59 631,-275.59 631,-281.59 631,-281.59 631,-309.59 631,-309.59 631,-315.59 625,-321.59 619,-321.59 619,-321.59 573,-321.59 573,-321.59 567,-321.59 561,-315.59 561,-309.59 561,-309.59 561,-281.59 561,-281.59 561,-275.59 567,-269.59 573,-269.59"/>
<text text-anchor="middle" x="596" y="-310.39" font-family="Helvetica,sans-Serif" font-weight="bold" font-size="9.00">mssql</text>
</g>
<g id="clust13" class="cluster">
<title>cluster_node_modules/pine</title>
<path fill="#ffffff" stroke="black" stroke-width="2" d="M573,-329.59C573,-329.59 619,-329.59 619,-329.59 625,-329.59 631,-335.59 631,-341.59 631,-341.59 631,-369.59 631,-369.59 631,-375.59 625,-381.59 619,-381.59 619,-381.59 573,-381.59 573,-381.59 567,-381.59 561,-375.59 561,-369.59 561,-369.59 561,-341.59 561,-341.59 561,-335.59 567,-329.59 573,-329.59"/>
<text text-anchor="middle" x="596" y="-370.39" font-family="Helvetica,sans-Serif" font-weight="bold" font-size="9.00">pine</text>
</g>
<g id="clust14" class="cluster">
<title>cluster_use&#45;cases</title>
<path fill="#ffffff" stroke="black" stroke-width="2" d="M270,-31.59C270,-31.59 316,-31.59 316,-31.59 322,-31.59 328,-37.59 328,-43.59 328,-43.59 328,-71.59 328,-71.59 328,-77.59 322,-83.59 316,-83.59 316,-83.59 270,-83.59 270,-83.59 264,-83.59 258,-77.59 258,-71.59 258,-71.59 258,-43.59 258,-43.59 258,-37.59 264,-31.59 270,-31.59"/>
<text text-anchor="middle" x="293" y="-72.39" font-family="Helvetica,sans-Serif" font-weight="bold" font-size="9.00">use&#45;cases</text>
</g>
<g id="clust15" class="cluster">
<title>cluster_users</title>
<path fill="#ffffff" stroke="black" stroke-width="2" d="M20,-351.59C20,-351.59 66,-351.59 66,-351.59 72,-351.59 78,-357.59 78,-363.59 78,-363.59 78,-391.59 78,-391.59 78,-397.59 72,-403.59 66,-403.59 66,-403.59 20,-403.59 20,-403.59 14,-403.59 8,-397.59 8,-391.59 8,-391.59 8,-363.59 8,-363.59 8,-357.59 14,-351.59 20,-351.59"/>
<text text-anchor="middle" x="43" y="-392.39" font-family="Helvetica,sans-Serif" font-weight="bold" font-size="9.00">users</text>
</g>
<g id="clust1" class="cluster">
<title>cluster_adapters</title>
<path fill="#ffffff" stroke="black" stroke-width="2" d="M98,-91.59C98,-91.59 446,-91.59 446,-91.59 452,-91.59 458,-97.59 458,-103.59 458,-103.59 458,-405.59 458,-405.59 458,-411.59 452,-417.59 446,-417.59 446,-417.59 98,-417.59 98,-417.59 92,-417.59 86,-411.59 86,-405.59 86,-405.59 86,-103.59 86,-103.59 86,-97.59 92,-91.59 98,-91.59"/>
<text text-anchor="middle" x="272" y="-406.39" font-family="Helvetica,sans-Serif" font-weight="bold" font-size="9.00">adapters</text>
</g>
<g id="clust2" class="cluster">
<title>cluster_adapters/controllers</title>
<path fill="#ffffff" stroke="black" stroke-width="2" d="M124,-339.59C124,-339.59 205,-339.59 205,-339.59 211,-339.59 217,-345.59 217,-351.59 217,-351.59 217,-379.59 217,-379.59 217,-385.59 211,-391.59 205,-391.59 205,-391.59 124,-391.59 124,-391.59 118,-391.59 112,-385.59 112,-379.59 112,-379.59 112,-351.59 112,-351.59 112,-345.59 118,-339.59 124,-339.59"/>
<text text-anchor="middle" x="164.5" y="-380.39" font-family="Helvetica,sans-Serif" font-weight="bold" font-size="9.00">controllers</text>
</g>
<g id="clust3" class="cluster">
<title>cluster_adapters/gateways</title>
<path fill="#ffffff" stroke="black" stroke-width="2" d="M106,-279.59C106,-279.59 223,-279.59 223,-279.59 229,-279.59 235,-285.59 235,-291.59 235,-291.59 235,-319.59 235,-319.59 235,-325.59 229,-331.59 223,-331.59 223,-331.59 106,-331.59 106,-331.59 100,-331.59 94,-325.59 94,-319.59 94,-319.59 94,-291.59 94,-291.59 94,-285.59 100,-279.59 106,-279.59"/>
<text text-anchor="middle" x="164.5" y="-320.39" font-family="Helvetica,sans-Serif" font-weight="bold" font-size="9.00">gateways</text>
</g>
<g id="clust4" class="cluster">
<title>cluster_adapters/services</title>
<path fill="#ffffff" stroke="black" stroke-width="2" d="M363,-310.59C363,-310.59 438,-310.59 438,-310.59 444,-310.59 450,-316.59 450,-322.59 450,-322.59 450,-350.59 450,-350.59 450,-356.59 444,-362.59 438,-362.59 438,-362.59 363,-362.59 363,-362.59 357,-362.59 351,-356.59 351,-350.59 351,-350.59 351,-322.59 351,-322.59 351,-316.59 357,-310.59 363,-310.59"/>
<text text-anchor="middle" x="400.5" y="-351.39" font-family="Helvetica,sans-Serif" font-weight="bold" font-size="9.00">services</text>
</g>
<g id="clust6" class="cluster">
<title>cluster_adapters/utils</title>
<path fill="#ffffff" stroke="black" stroke-width="2" d="M265,-283.59C265,-283.59 321,-283.59 321,-283.59 327,-283.59 333,-289.59 333,-295.59 333,-295.59 333,-353.59 333,-353.59 333,-359.59 327,-365.59 321,-365.59 321,-365.59 265,-365.59 265,-365.59 259,-365.59 253,-359.59 253,-353.59 253,-353.59 253,-295.59 253,-295.59 253,-289.59 259,-283.59 265,-283.59"/>
<text text-anchor="middle" x="293" y="-354.39" font-family="Helvetica,sans-Serif" font-weight="bold" font-size="9.00">utils</text>
</g>
<g id="clust5" class="cluster">
<title>cluster_adapters/types</title>
<path fill="#ffffff" stroke="black" stroke-width="2" d="M109.5,-99.59C109.5,-99.59 219.5,-99.59 219.5,-99.59 225.5,-99.59 231.5,-105.59 231.5,-111.59 231.5,-111.59 231.5,-259.59 231.5,-259.59 231.5,-265.59 225.5,-271.59 219.5,-271.59 219.5,-271.59 109.5,-271.59 109.5,-271.59 103.5,-271.59 97.5,-265.59 97.5,-259.59 97.5,-259.59 97.5,-111.59 97.5,-111.59 97.5,-105.59 103.5,-99.59 109.5,-99.59"/>
<text text-anchor="middle" x="164.5" y="-260.39" font-family="Helvetica,sans-Serif" font-weight="bold" font-size="9.00">types</text>
</g>
<!-- adapters/controllers/users.controller.ts -->
<g id="node1" class="node">
<title>adapters/controllers/users.controller.ts</title>
<g id="a_node1"><a xlink:href="adapters/controllers/users.controller.ts" xlink:title="users.controller.ts">
<path fill="#ddfeff" stroke="black" d="M203,-365.59C203,-365.59 126,-365.59 126,-365.59 123,-365.59 120,-362.59 120,-359.59 120,-359.59 120,-353.59 120,-353.59 120,-350.59 123,-347.59 126,-347.59 126,-347.59 203,-347.59 203,-347.59 206,-347.59 209,-350.59 209,-353.59 209,-353.59 209,-359.59 209,-359.59 209,-362.59 206,-365.59 203,-365.59"/>
<text text-anchor="start" x="128" y="-354.39" font-family="Helvetica,sans-Serif" font-size="9.00">users.controller.ts</text>
</a>
</g>
</g>
<!-- use&#45;cases/index.ts -->
<g id="node2" class="node">
<title>use&#45;cases/index.ts</title>
<g id="a_node2"><a xlink:href="use-cases/index.ts" xlink:title="index.ts">
<path fill="#ddfeff" stroke="black" d="M314,-57.59C314,-57.59 272,-57.59 272,-57.59 269,-57.59 266,-54.59 266,-51.59 266,-51.59 266,-45.59 266,-45.59 266,-42.59 269,-39.59 272,-39.59 272,-39.59 314,-39.59 314,-39.59 317,-39.59 320,-42.59 320,-45.59 320,-45.59 320,-51.59 320,-51.59 320,-54.59 317,-57.59 314,-57.59"/>
<text text-anchor="start" x="277" y="-46.39" font-family="Helvetica,sans-Serif" font-size="9.00">index.ts</text>
</a>
</g>
</g>
<!-- adapters/controllers/users.controller.ts&#45;&gt;use&#45;cases/index.ts -->
<g id="edge1" class="edge">
<title>adapters/controllers/users.controller.ts&#45;&gt;use&#45;cases/index.ts</title>
<path fill="none" stroke="#000000" stroke-width="2" stroke-opacity="0.200000" d="M209.33,-350.85C219.07,-347.56 228.44,-342.47 235,-334.59 244.17,-323.57 240.56,-284.71 243,-270.59 256.23,-193.86 278.17,-103.55 287.54,-66.16"/>
<polygon fill="#000000" fill-opacity="0.200000" stroke="#000000" stroke-width="2" stroke-opacity="0.200000" points="290.21,-66.16 289.64,-59.83 286.13,-65.14 290.21,-66.16"/>
</g>
<!-- adapters/data&#45;access.proxy.ts -->
<g id="node3" class="node">
<title>adapters/data&#45;access.proxy.ts</title>
<g id="a_node3"><a xlink:href="adapters/data-access.proxy.ts" xlink:title="data&#45;access.proxy.ts">
<path fill="#ddfeff" stroke="black" d="M337,-391.59C337,-391.59 249,-391.59 249,-391.59 246,-391.59 243,-388.59 243,-385.59 243,-385.59 243,-379.59 243,-379.59 243,-376.59 246,-373.59 249,-373.59 249,-373.59 337,-373.59 337,-373.59 340,-373.59 343,-376.59 343,-379.59 343,-379.59 343,-385.59 343,-385.59 343,-388.59 340,-391.59 337,-391.59"/>
<text text-anchor="start" x="251" y="-380.39" font-family="Helvetica,sans-Serif" font-size="9.00">data&#45;access.proxy.ts</text>
</a>
</g>
</g>
<!-- adapters/controllers/users.controller.ts&#45;&gt;adapters/data&#45;access.proxy.ts -->
<g id="edge2" class="edge">
<title>adapters/controllers/users.controller.ts&#45;&gt;adapters/data&#45;access.proxy.ts</title>
<path fill="none" stroke="#000000" stroke-width="2" stroke-opacity="0.200000" d="M209.39,-365.61C218.46,-367.47 228.12,-369.46 237.51,-371.39"/>
<polygon fill="#000000" fill-opacity="0.200000" stroke="#000000" stroke-width="2" stroke-opacity="0.200000" points="237.74,-373.99 244.04,-373.14 238.58,-369.88 237.74,-373.99"/>
</g>
<!-- adapters/services/logger.service.ts -->
<g id="node4" class="node">
<title>adapters/services/logger.service.ts</title>
<g id="a_node4"><a xlink:href="adapters/services/logger.service.ts" xlink:title="logger.service.ts">
<path fill="#ddfeff" stroke="black" d="M436,-336.59C436,-336.59 365,-336.59 365,-336.59 362,-336.59 359,-333.59 359,-330.59 359,-330.59 359,-324.59 359,-324.59 359,-321.59 362,-318.59 365,-318.59 365,-318.59 436,-318.59 436,-318.59 439,-318.59 442,-321.59 442,-324.59 442,-324.59 442,-330.59 442,-330.59 442,-333.59 439,-336.59 436,-336.59"/>
<text text-anchor="start" x="367" y="-325.39" font-family="Helvetica,sans-Serif" font-size="9.00">logger.service.ts</text>
</a>
</g>
</g>
<!-- adapters/controllers/users.controller.ts&#45;&gt;adapters/services/logger.service.ts -->
<g id="edge3" class="edge">
<title>adapters/controllers/users.controller.ts&#45;&gt;adapters/services/logger.service.ts</title>
<path fill="none" stroke="#000000" stroke-width="2" stroke-opacity="0.200000" d="M209.21,-350.74C218.95,-347.46 228.35,-342.39 235,-334.59 250.73,-316.12 224.63,-296.44 243,-280.59 259.83,-266.07 322.1,-273.03 343,-280.59 360.09,-286.77 375.65,-300.62 386.1,-311.7"/>
<polygon fill="#000000" fill-opacity="0.200000" stroke="#000000" stroke-width="2" stroke-opacity="0.200000" points="384.33,-313.09 389.91,-316.14 387.45,-310.28 384.33,-313.09"/>
</g>
<!-- adapters/data&#45;access.proxy.ts&#45;&gt;adapters/services/logger.service.ts -->
<g id="edge4" class="edge">
<title>adapters/data&#45;access.proxy.ts&#45;&gt;adapters/services/logger.service.ts</title>
<path fill="none" stroke="#000000" stroke-width="2" stroke-opacity="0.200000" d="M332.21,-373.1C335.93,-371.75 339.58,-370.25 343,-368.59 357.17,-361.69 371.51,-351.23 382.21,-342.6"/>
<polygon fill="#000000" fill-opacity="0.200000" stroke="#000000" stroke-width="2" stroke-opacity="0.200000" points="383.7,-343.43 386.98,-337.98 381.02,-340.19 383.7,-343.43"/>
</g>
<!-- configs/index.ts -->
<g id="node5" class="node">
<title>configs/index.ts</title>
<g id="a_node5"><a xlink:href="configs/index.ts" xlink:title="index.ts">
<path fill="#ddfeff" stroke="black" d="M421.5,-451.59C421.5,-451.59 379.5,-451.59 379.5,-451.59 376.5,-451.59 373.5,-448.59 373.5,-445.59 373.5,-445.59 373.5,-439.59 373.5,-439.59 373.5,-436.59 376.5,-433.59 379.5,-433.59 379.5,-433.59 421.5,-433.59 421.5,-433.59 424.5,-433.59 427.5,-436.59 427.5,-439.59 427.5,-439.59 427.5,-445.59 427.5,-445.59 427.5,-448.59 424.5,-451.59 421.5,-451.59"/>
<text text-anchor="start" x="384.5" y="-440.39" font-family="Helvetica,sans-Serif" font-size="9.00">index.ts</text>
</a>
</g>
</g>
<!-- adapters/data&#45;access.proxy.ts&#45;&gt;configs/index.ts -->
<g id="edge5" class="edge">
<title>adapters/data&#45;access.proxy.ts&#45;&gt;configs/index.ts</title>
<path fill="none" stroke="#000000" stroke-width="2" stroke-opacity="0.200000" d="M310.48,-391.96C327.9,-401.87 355.55,-417.59 375.41,-428.89"/>
<polygon fill="#000000" fill-opacity="0.200000" stroke="#000000" stroke-width="2" stroke-opacity="0.200000" points="374.88,-431.14 381.13,-432.28 376.95,-427.49 374.88,-431.14"/>
</g>
<!-- node_modules/pine/index.js -->
<g id="node9" class="node">
<title>node_modules/pine/index.js</title>
<g id="a_node9"><a xlink:href="node_modules/pine/index.js" xlink:title="index.js">
<polygon fill="#c40b0a" fill-opacity="0.101961" stroke="black" points="623,-355.59 621.5,-357.59 611,-357.59 609.5,-355.59 569,-355.59 569,-337.59 623,-337.59 623,-355.59"/>
<text text-anchor="start" x="580" y="-344.39" font-family="Helvetica,sans-Serif" font-size="9.00" fill="#c40b0a">index.js</text>
</a>
</g>
</g>
<!-- adapters/services/logger.service.ts&#45;&gt;node_modules/pine/index.js -->
<g id="edge9" class="edge">
<title>adapters/services/logger.service.ts&#45;&gt;node_modules/pine/index.js</title>
<path fill="none" stroke="#000000" stroke-opacity="0.200000" d="M442.06,-331.57C477.65,-335.07 528.77,-340.09 561.93,-343.34"/>
<polygon fill="#000000" fill-opacity="0.200000" stroke="#000000" stroke-opacity="0.200000" points="561.54,-345.51 567.72,-344.01 561.96,-341.33 561.54,-345.51"/>
</g>
<!-- configs/db.config.ts -->
<g id="node17" class="node">
<title>configs/db.config.ts</title>
<g id="a_node17"><a xlink:href="configs/db.config.ts" xlink:title="db.config.ts">
<path fill="#ddfeff" stroke="black" d="M523,-451.59C523,-451.59 472,-451.59 472,-451.59 469,-451.59 466,-448.59 466,-445.59 466,-445.59 466,-439.59 466,-439.59 466,-436.59 469,-433.59 472,-433.59 472,-433.59 523,-433.59 523,-433.59 526,-433.59 529,-436.59 529,-439.59 529,-439.59 529,-445.59 529,-445.59 529,-448.59 526,-451.59 523,-451.59"/>
<text text-anchor="start" x="474" y="-440.39" font-family="Helvetica,sans-Serif" font-size="9.00">db.config.ts</text>
</a>
</g>
</g>
<!-- configs/index.ts&#45;&gt;configs/db.config.ts -->
<g id="edge15" class="edge">
<title>configs/index.ts&#45;&gt;configs/db.config.ts</title>
<path fill="none" stroke="#000000" stroke-width="2" stroke-opacity="0.200000" d="M427.96,-442.59C436.96,-442.59 447.21,-442.59 457,-442.59"/>
<polygon fill="#000000" fill-opacity="0.200000" stroke="#000000" stroke-width="2" stroke-opacity="0.200000" points="456.81,-444.69 462.81,-442.59 456.81,-440.49 456.81,-444.69"/>
</g>
<!-- node_modules/dotenv/lib/main.js -->
<g id="node18" class="node">
<title>node_modules/dotenv/lib/main.js</title>
<g id="a_node18"><a xlink:href="node_modules/dotenv/lib/main.js" xlink:title="main.js">
<polygon fill="#c40b0a" fill-opacity="0.101961" stroke="black" points="623,-423.59 621.5,-425.59 611,-425.59 609.5,-423.59 569,-423.59 569,-405.59 623,-405.59 623,-423.59"/>
<text text-anchor="start" x="581" y="-412.39" font-family="Helvetica,sans-Serif" font-size="9.00" fill="#c40b0a">main.js</text>
</a>
</g>
</g>
<!-- configs/index.ts&#45;&gt;node_modules/dotenv/lib/main.js -->
<g id="edge16" class="edge">
<title>configs/index.ts&#45;&gt;node_modules/dotenv/lib/main.js</title>
<path fill="none" stroke="#000000" stroke-opacity="0.200000" d="M427.71,-435.69C439.36,-432.83 453.3,-429.7 466,-427.59 498.41,-422.21 535.8,-418.74 561.95,-416.75"/>
<polygon fill="#000000" fill-opacity="0.200000" stroke="#000000" stroke-opacity="0.200000" points="561.85,-418.79 567.68,-416.25 561.54,-414.6 561.85,-418.79"/>
</g>
<!-- adapters/gateways/users.azure.sql.gateway.ts -->
<g id="node6" class="node">
<title>adapters/gateways/users.azure.sql.gateway.ts</title>
<g id="a_node6"><a xlink:href="adapters/gateways/users.azure.sql.gateway.ts" xlink:title="users.azure.sql.gateway.ts">
<path fill="#ddfeff" stroke="black" d="M221,-305.59C221,-305.59 108,-305.59 108,-305.59 105,-305.59 102,-302.59 102,-299.59 102,-299.59 102,-293.59 102,-293.59 102,-290.59 105,-287.59 108,-287.59 108,-287.59 221,-287.59 221,-287.59 224,-287.59 227,-290.59 227,-293.59 227,-293.59 227,-299.59 227,-299.59 227,-302.59 224,-305.59 221,-305.59"/>
<text text-anchor="start" x="110" y="-294.39" font-family="Helvetica,sans-Serif" font-size="9.00">users.azure.sql.gateway.ts</text>
</a>
</g>
</g>
<!-- adapters/gateways/users.azure.sql.gateway.ts&#45;&gt;adapters/services/logger.service.ts -->
<g id="edge6" class="edge">
<title>adapters/gateways/users.azure.sql.gateway.ts&#45;&gt;adapters/services/logger.service.ts</title>
<path fill="none" stroke="#000000" stroke-width="2" stroke-opacity="0.200000" d="M203.21,-287.18C213.79,-283.87 225.1,-279.68 235,-274.59 238.95,-272.56 238.78,-269.99 243,-268.59 285.16,-254.53 302.13,-251.14 343,-268.59 363.03,-277.14 379.36,-296.66 389.22,-310.92"/>
<polygon fill="#000000" fill-opacity="0.200000" stroke="#000000" stroke-width="2" stroke-opacity="0.200000" points="387.96,-312.34 393.02,-316.19 391.47,-310.02 387.96,-312.34"/>
</g>
<!-- adapters/utils/database.ts -->
<g id="node7" class="node">
<title>adapters/utils/database.ts</title>
<g id="a_node7"><a xlink:href="adapters/utils/database.ts" xlink:title="database.ts">
<path fill="#ddfeff" stroke="black" d="M319,-309.59C319,-309.59 267,-309.59 267,-309.59 264,-309.59 261,-306.59 261,-303.59 261,-303.59 261,-297.59 261,-297.59 261,-294.59 264,-291.59 267,-291.59 267,-291.59 319,-291.59 319,-291.59 322,-291.59 325,-294.59 325,-297.59 325,-297.59 325,-303.59 325,-303.59 325,-306.59 322,-309.59 319,-309.59"/>
<text text-anchor="start" x="269" y="-298.39" font-family="Helvetica,sans-Serif" font-size="9.00">database.ts</text>
</a>
</g>
</g>
<!-- adapters/gateways/users.azure.sql.gateway.ts&#45;&gt;adapters/utils/database.ts -->
<g id="edge7" class="edge">
<title>adapters/gateways/users.azure.sql.gateway.ts&#45;&gt;adapters/utils/database.ts</title>
<path fill="none" stroke="#000000" stroke-width="2" stroke-opacity="0.200000" d="M227.27,-298.54C235.56,-298.8 243.89,-299.07 251.68,-299.31"/>
<polygon fill="#000000" fill-opacity="0.200000" stroke="#000000" stroke-width="2" stroke-opacity="0.200000" points="251.48,-301.5 257.55,-299.59 251.62,-297.31 251.48,-301.5"/>
</g>
<!-- node_modules/mssql/index.js -->
<g id="node8" class="node">
<title>node_modules/mssql/index.js</title>
<g id="a_node8"><a xlink:href="node_modules/mssql/index.js" xlink:title="index.js">
<polygon fill="#c40b0a" fill-opacity="0.101961" stroke="black" points="623,-295.59 621.5,-297.59 611,-297.59 609.5,-295.59 569,-295.59 569,-277.59 623,-277.59 623,-295.59"/>
<text text-anchor="start" x="580" y="-284.39" font-family="Helvetica,sans-Serif" font-size="9.00" fill="#c40b0a">index.js</text>
</a>
</g>
</g>
<!-- adapters/gateways/users.azure.sql.gateway.ts&#45;&gt;node_modules/mssql/index.js -->
<g id="edge8" class="edge">
<title>adapters/gateways/users.azure.sql.gateway.ts&#45;&gt;node_modules/mssql/index.js</title>
<path fill="none" stroke="#000000" stroke-opacity="0.200000" d="M219.66,-287.11C225.6,-284.01 230.95,-279.93 235,-274.59 251.51,-252.79 223.35,-47.61 243,-28.59 365.87,90.35 545.67,-200.94 586.53,-271.59"/>
<polygon fill="#000000" fill-opacity="0.200000" stroke="#000000" stroke-opacity="0.200000" points="585.04,-272.21 589.85,-276.37 588.68,-270.12 585.04,-272.21"/>
</g>
<!-- adapters/utils/database.ts&#45;&gt;adapters/services/logger.service.ts -->
<g id="edge11" class="edge">
<title>adapters/utils/database.ts&#45;&gt;adapters/services/logger.service.ts</title>
<path fill="none" stroke="#000000" stroke-width="2" stroke-opacity="0.200000" d="M325.37,-308.62C334.3,-310.9 344.21,-313.44 353.8,-315.89"/>
<polygon fill="#000000" fill-opacity="0.200000" stroke="#000000" stroke-width="2" stroke-opacity="0.200000" points="354.16,-318.66 360.49,-318.12 355.2,-314.59 354.16,-318.66"/>
</g>
<!-- adapters/utils/database.ts&#45;&gt;configs/index.ts -->
<g id="edge10" class="edge">
<title>adapters/utils/database.ts&#45;&gt;configs/index.ts</title>
<path fill="none" stroke="#000000" stroke-width="2" stroke-opacity="0.200000" d="M325.26,-304.58C331.95,-306.83 338.39,-310.29 343,-315.59 357.77,-332.56 343.06,-344.53 351,-365.59 359.54,-388.25 375.24,-411.38 386.47,-426.29"/>
<polygon fill="#000000" fill-opacity="0.200000" stroke="#000000" stroke-width="2" stroke-opacity="0.200000" points="385.54,-427.83 390.87,-431.29 388.86,-425.26 385.54,-427.83"/>
</g>
<!-- adapters/utils/database.ts&#45;&gt;node_modules/mssql/index.js -->
<g id="edge12" class="edge">
<title>adapters/utils/database.ts&#45;&gt;node_modules/mssql/index.js</title>
<path fill="none" stroke="#000000" stroke-opacity="0.200000" d="M325.36,-299.13C382.51,-296.47 503.12,-290.86 561.69,-288.14"/>
<polygon fill="#000000" fill-opacity="0.200000" stroke="#000000" stroke-opacity="0.200000" points="561.62,-290.2 567.51,-287.82 561.42,-286 561.62,-290.2"/>
</g>
<!-- adapters/types/basic.d.ts -->
<g id="node10" class="node">
<title>adapters/types/basic.d.ts</title>
<g id="a_node10"><a xlink:href="adapters/types/basic.d.ts" xlink:title="basic.d.ts">
<path fill="#ccffcc" stroke="black" d="M186,-245.59C186,-245.59 143,-245.59 143,-245.59 140,-245.59 137,-242.59 137,-239.59 137,-239.59 137,-233.59 137,-233.59 137,-230.59 140,-227.59 143,-227.59 143,-227.59 186,-227.59 186,-227.59 189,-227.59 192,-230.59 192,-233.59 192,-233.59 192,-239.59 192,-239.59 192,-242.59 189,-245.59 186,-245.59"/>
<text text-anchor="start" x="145" y="-234.39" font-family="Helvetica,sans-Serif" font-size="9.00">basic.d.ts</text>
</a>
</g>
</g>
<!-- adapters/types/cases.d.ts -->
<g id="node11" class="node">
<title>adapters/types/cases.d.ts</title>
<g id="a_node11"><a xlink:href="adapters/types/cases.d.ts" xlink:title="cases.d.ts">
<path fill="#ccffcc" stroke="black" d="M187,-215.59C187,-215.59 142,-215.59 142,-215.59 139,-215.59 136,-212.59 136,-209.59 136,-209.59 136,-203.59 136,-203.59 136,-200.59 139,-197.59 142,-197.59 142,-197.59 187,-197.59 187,-197.59 190,-197.59 193,-200.59 193,-203.59 193,-203.59 193,-209.59 193,-209.59 193,-212.59 190,-215.59 187,-215.59"/>
<text text-anchor="start" x="144" y="-204.39" font-family="Helvetica,sans-Serif" font-size="9.00">cases.d.ts</text>
</a>
</g>
</g>
<!-- adapters/types/database.d.ts -->
<g id="node12" class="node">
<title>adapters/types/database.d.ts</title>
<g id="a_node12"><a xlink:href="adapters/types/database.d.ts" xlink:title="database.d.ts">
<path fill="#ccffcc" stroke="black" d="M194,-185.59C194,-185.59 135,-185.59 135,-185.59 132,-185.59 129,-182.59 129,-179.59 129,-179.59 129,-173.59 129,-173.59 129,-170.59 132,-167.59 135,-167.59 135,-167.59 194,-167.59 194,-167.59 197,-167.59 200,-170.59 200,-173.59 200,-173.59 200,-179.59 200,-179.59 200,-182.59 197,-185.59 194,-185.59"/>
<text text-anchor="start" x="137" y="-174.39" font-family="Helvetica,sans-Serif" font-size="9.00">database.d.ts</text>
</a>
</g>
</g>
<!-- adapters/types/http.d.ts -->
<g id="node13" class="node">
<title>adapters/types/http.d.ts</title>
<g id="a_node13"><a xlink:href="adapters/types/http.d.ts" xlink:title="http.d.ts">
<path fill="#ccffcc" stroke="black" d="M185.5,-155.59C185.5,-155.59 143.5,-155.59 143.5,-155.59 140.5,-155.59 137.5,-152.59 137.5,-149.59 137.5,-149.59 137.5,-143.59 137.5,-143.59 137.5,-140.59 140.5,-137.59 143.5,-137.59 143.5,-137.59 185.5,-137.59 185.5,-137.59 188.5,-137.59 191.5,-140.59 191.5,-143.59 191.5,-143.59 191.5,-149.59 191.5,-149.59 191.5,-152.59 188.5,-155.59 185.5,-155.59"/>
<text text-anchor="start" x="148.5" y="-144.39" font-family="Helvetica,sans-Serif" font-size="9.00">http.d.ts</text>
</a>
</g>
</g>
<!-- adapters/types/persistence&#45;gateway.d.ts -->
<g id="node14" class="node">
<title>adapters/types/persistence&#45;gateway.d.ts</title>
<g id="a_node14"><a xlink:href="adapters/types/persistence-gateway.d.ts" xlink:title="persistence&#45;gateway.d.ts">
<path fill="#ccffcc" stroke="black" d="M217.5,-125.59C217.5,-125.59 111.5,-125.59 111.5,-125.59 108.5,-125.59 105.5,-122.59 105.5,-119.59 105.5,-119.59 105.5,-113.59 105.5,-113.59 105.5,-110.59 108.5,-107.59 111.5,-107.59 111.5,-107.59 217.5,-107.59 217.5,-107.59 220.5,-107.59 223.5,-110.59 223.5,-113.59 223.5,-113.59 223.5,-119.59 223.5,-119.59 223.5,-122.59 220.5,-125.59 217.5,-125.59"/>
<text text-anchor="start" x="113.5" y="-114.39" font-family="Helvetica,sans-Serif" font-size="9.00">persistence&#45;gateway.d.ts</text>
</a>
</g>
</g>
<!-- adapters/utils/http.ts -->
<g id="node15" class="node">
<title>adapters/utils/http.ts</title>
<g id="a_node15"><a xlink:href="adapters/utils/http.ts" xlink:title="http.ts">
<path fill="#ddfeff" stroke="black" d="M314,-339.59C314,-339.59 272,-339.59 272,-339.59 269,-339.59 266,-336.59 266,-333.59 266,-333.59 266,-327.59 266,-327.59 266,-324.59 269,-321.59 272,-321.59 272,-321.59 314,-321.59 314,-321.59 317,-321.59 320,-324.59 320,-327.59 320,-327.59 320,-333.59 320,-333.59 320,-336.59 317,-339.59 314,-339.59"/>
<text text-anchor="start" x="280.5" y="-328.39" font-family="Helvetica,sans-Serif" font-size="9.00">http.ts</text>
</a>
</g>
</g>
<!-- adapters/utils/http.ts&#45;&gt;adapters/services/logger.service.ts -->
<g id="edge13" class="edge">
<title>adapters/utils/http.ts&#45;&gt;adapters/services/logger.service.ts</title>
<path fill="none" stroke="#000000" stroke-width="2" stroke-opacity="0.200000" d="M320.35,-329.84C329.32,-329.58 339.66,-329.29 349.85,-329"/>
<polygon fill="#000000" fill-opacity="0.200000" stroke="#000000" stroke-width="2" stroke-opacity="0.200000" points="349.78,-331.02 355.72,-328.75 349.66,-326.82 349.78,-331.02"/>
</g>
<!-- cases/index.ts -->
<g id="node16" class="node">
<title>cases/index.ts</title>
<g id="a_node16"><a xlink:href="cases/index.ts" xlink:title="index.ts">
<path fill="#ccffcc" stroke="black" d="M64,-462.59C64,-462.59 22,-462.59 22,-462.59 19,-462.59 16,-459.59 16,-456.59 16,-456.59 16,-450.59 16,-450.59 16,-447.59 19,-444.59 22,-444.59 22,-444.59 64,-444.59 64,-444.59 67,-444.59 70,-447.59 70,-450.59 70,-450.59 70,-456.59 70,-456.59 70,-459.59 67,-462.59 64,-462.59"/>
<text text-anchor="start" x="27" y="-451.39" font-family="Helvetica,sans-Serif" font-size="9.00">index.ts</text>
</a>
</g>
</g>
<!-- configs/db.config.ts&#45;&gt;node_modules/dotenv/lib/main.js -->
<g id="edge14" class="edge">
<title>configs/db.config.ts&#45;&gt;node_modules/dotenv/lib/main.js</title>
<path fill="none" stroke="#000000" stroke-opacity="0.200000" d="M529.3,-433.65C539.8,-430.6 551.59,-427.19 562.24,-424.09"/>
<polygon fill="#000000" fill-opacity="0.200000" stroke="#000000" stroke-opacity="0.200000" points="562.53,-425.91 567.71,-422.22 561.36,-421.87 562.53,-425.91"/>
</g>
<!-- users/index.ts -->
<g id="node19" class="node">
<title>users/index.ts</title>
<g id="a_node19"><a xlink:href="users/index.ts" xlink:title="index.ts">
<path fill="#ddfeff" stroke="black" d="M64,-377.59C64,-377.59 22,-377.59 22,-377.59 19,-377.59 16,-374.59 16,-371.59 16,-371.59 16,-365.59 16,-365.59 16,-362.59 19,-359.59 22,-359.59 22,-359.59 64,-359.59 64,-359.59 67,-359.59 70,-362.59 70,-365.59 70,-365.59 70,-371.59 70,-371.59 70,-374.59 67,-377.59 64,-377.59"/>
<text text-anchor="start" x="27" y="-366.39" font-family="Helvetica,sans-Serif" font-size="9.00">index.ts</text>
</a>
</g>
</g>
<!-- users/index.ts&#45;&gt;adapters/controllers/users.controller.ts -->
<g id="edge17" class="edge">
<title>users/index.ts&#45;&gt;adapters/controllers/users.controller.ts</title>
<path fill="none" stroke="#000000" stroke-width="2" stroke-opacity="0.200000" d="M70.22,-365.95C82.29,-364.74 97.04,-363.26 111.23,-361.84"/>
<polygon fill="#000000" fill-opacity="0.200000" stroke="#000000" stroke-width="2" stroke-opacity="0.200000" points="111.2,-363.65 116.96,-360.96 110.78,-359.47 111.2,-363.65"/>
</g>
<!-- users/index.ts&#45;&gt;adapters/utils/http.ts -->
<g id="edge18" class="edge">
<title>users/index.ts&#45;&gt;adapters/utils/http.ts</title>
<path fill="none" stroke="#000000" stroke-width="2" stroke-opacity="0.200000" d="M55.29,-378C63.3,-384.05 74.62,-391.35 86,-394.59 149.7,-412.71 184.68,-437.63 235,-394.59 252.44,-379.67 227.64,-360.63 243,-343.59 246.79,-339.38 251.77,-336.47 257.1,-334.47"/>
<polygon fill="#000000" fill-opacity="0.200000" stroke="#000000" stroke-width="2" stroke-opacity="0.200000" points="258.46,-335.69 263.64,-332.01 257.3,-331.65 258.46,-335.69"/>
</g>
</g>
</svg>
