<?xml version="1.0" encoding="UTF-8" standalone="no"?>
<!DOCTYPE svg PUBLIC "-//W3C//DTD SVG 1.1//EN"
 "http://www.w3.org/Graphics/SVG/1.1/DTD/svg11.dtd">
<!-- Generated by graphviz version 9.0.0 (20230911.1827)
 -->
<!-- Title: dependency&#45;cruiser output Pages: 1 -->
<svg width="1103pt" height="806pt"
 viewBox="0.00 0.00 1103.38 806.00" xmlns="http://www.w3.org/2000/svg" xmlns:xlink="http://www.w3.org/1999/xlink">
<g id="graph0" class="graph" transform="scale(1 1) rotate(0) translate(4 802)">
<title>dependency&#45;cruiser output</title>
<polygon fill="white" stroke="none" points="-4,4 -4,-802 1099.38,-802 1099.38,4 -4,4"/>
<g id="clust1" class="cluster">
<title>cluster_src</title>
<path fill="#ffffff" stroke="black" stroke-width="2" d="M20,-68C20,-68 1075.38,-68 1075.38,-68 1081.38,-68 1087.38,-74 1087.38,-80 1087.38,-80 1087.38,-778 1087.38,-778 1087.38,-784 1081.38,-790 1075.38,-790 1075.38,-790 20,-790 20,-790 14,-790 8,-784 8,-778 8,-778 8,-80 8,-80 8,-74 14,-68 20,-68"/>
<text text-anchor="middle" x="547.69" y="-777.45" font-family="Helvetica,sans-Serif" font-weight="bold" font-size="9.00">src</text>
</g>
<g id="clust2" class="cluster">
<title>cluster_src/components</title>
<path fill="#ffffff" stroke="black" stroke-width="2" d="M209.5,-346C209.5,-346 997.38,-346 997.38,-346 1003.38,-346 1009.38,-352 1009.38,-358 1009.38,-358 1009.38,-656 1009.38,-656 1009.38,-662 1003.38,-668 997.38,-668 997.38,-668 209.5,-668 209.5,-668 203.5,-668 197.5,-662 197.5,-656 197.5,-656 197.5,-358 197.5,-358 197.5,-352 203.5,-346 209.5,-346"/>
<text text-anchor="middle" x="603.44" y="-655.45" font-family="Helvetica,sans-Serif" font-weight="bold" font-size="9.00">components</text>
</g>
<g id="clust3" class="cluster">
<title>cluster_src/components/uswds</title>
<path fill="#ffffff" stroke="black" stroke-width="2" d="M509.5,-390C509.5,-390 989.38,-390 989.38,-390 995.38,-390 1001.38,-396 1001.38,-402 1001.38,-402 1001.38,-604 1001.38,-604 1001.38,-610 995.38,-616 989.38,-616 989.38,-616 509.5,-616 509.5,-616 503.5,-616 497.5,-610 497.5,-604 497.5,-604 497.5,-402 497.5,-402 497.5,-396 503.5,-390 509.5,-390"/>
<text text-anchor="middle" x="749.44" y="-603.45" font-family="Helvetica,sans-Serif" font-weight="bold" font-size="9.00">uswds</text>
</g>
<g id="clust4" class="cluster">
<title>cluster_src/components/uswds/modal</title>
<path fill="#ffffff" stroke="black" stroke-width="2" d="M533.88,-454C533.88,-454 981.38,-454 981.38,-454 987.38,-454 993.38,-460 993.38,-466 993.38,-466 993.38,-522 993.38,-522 993.38,-528 987.38,-534 981.38,-534 981.38,-534 533.88,-534 533.88,-534 527.88,-534 521.88,-528 521.88,-522 521.88,-522 521.88,-466 521.88,-466 521.88,-460 527.88,-454 533.88,-454"/>
<text text-anchor="middle" x="757.62" y="-521.45" font-family="Helvetica,sans-Serif" font-weight="bold" font-size="9.00">modal</text>
</g>
<g id="clust5" class="cluster">
<title>cluster_src/components/utils</title>
<path fill="#ffffff" stroke="black" stroke-width="2" d="M217.5,-354C217.5,-354 314,-354 314,-354 320,-354 326,-360 326,-366 326,-366 326,-424 326,-424 326,-430 320,-436 314,-436 314,-436 217.5,-436 217.5,-436 211.5,-436 205.5,-430 205.5,-424 205.5,-424 205.5,-366 205.5,-366 205.5,-360 211.5,-354 217.5,-354"/>
<text text-anchor="middle" x="265.75" y="-423.45" font-family="Helvetica,sans-Serif" font-weight="bold" font-size="9.00">utils</text>
</g>
<g id="clust6" class="cluster">
<title>cluster_src/configuration</title>
<path fill="#ffffff" stroke="black" stroke-width="2" d="M658.88,-100C658.88,-100 744.12,-100 744.12,-100 750.12,-100 756.12,-106 756.12,-112 756.12,-112 756.12,-140 756.12,-140 756.12,-146 750.12,-152 744.12,-152 744.12,-152 658.88,-152 658.88,-152 652.88,-152 646.88,-146 646.88,-140 646.88,-140 646.88,-112 646.88,-112 646.88,-106 652.88,-100 658.88,-100"/>
<text text-anchor="middle" x="701.5" y="-139.45" font-family="Helvetica,sans-Serif" font-weight="bold" font-size="9.00">configuration</text>
</g>
<g id="clust7" class="cluster">
<title>cluster_src/hooks</title>
<path fill="#ffffff" stroke="black" stroke-width="2" d="M651.38,-226C651.38,-226 751.62,-226 751.62,-226 757.62,-226 763.62,-232 763.62,-238 763.62,-238 763.62,-326 763.62,-326 763.62,-332 757.62,-338 751.62,-338 751.62,-338 651.38,-338 651.38,-338 645.38,-338 639.38,-332 639.38,-326 639.38,-326 639.38,-238 639.38,-238 639.38,-232 645.38,-226 651.38,-226"/>
<text text-anchor="middle" x="701.5" y="-325.45" font-family="Helvetica,sans-Serif" font-weight="bold" font-size="9.00">hooks</text>
</g>
<g id="clust8" class="cluster">
<title>cluster_src/models</title>
<path fill="#ffffff" stroke="black" stroke-width="2" d="M354.5,-84C354.5,-84 580.38,-84 580.38,-84 586.38,-84 592.38,-90 592.38,-96 592.38,-96 592.38,-154 592.38,-154 592.38,-160 586.38,-166 580.38,-166 580.38,-166 354.5,-166 354.5,-166 348.5,-166 342.5,-160 342.5,-154 342.5,-154 342.5,-96 342.5,-96 342.5,-90 348.5,-84 354.5,-84"/>
<text text-anchor="middle" x="467.44" y="-153.45" font-family="Helvetica,sans-Serif" font-weight="bold" font-size="9.00">models</text>
</g>
<g id="clust9" class="cluster">
<title>cluster_src/store</title>
<path fill="#ffffff" stroke="black" stroke-width="2" d="M534.38,-678C534.38,-678 737.88,-678 737.88,-678 743.88,-678 749.88,-684 749.88,-690 749.88,-690 749.88,-752 749.88,-752 749.88,-758 743.88,-764 737.88,-764 737.88,-764 534.38,-764 534.38,-764 528.38,-764 522.38,-758 522.38,-752 522.38,-752 522.38,-690 522.38,-690 522.38,-684 528.38,-678 534.38,-678"/>
<text text-anchor="middle" x="636.12" y="-751.45" font-family="Helvetica,sans-Serif" font-weight="bold" font-size="9.00">store</text>
</g>
<g id="clust10" class="cluster">
<title>cluster_src/store/features</title>
<path fill="#ffffff" stroke="black" stroke-width="2" d="M673.12,-686C673.12,-686 729.88,-686 729.88,-686 735.88,-686 741.88,-692 741.88,-698 741.88,-698 741.88,-726 741.88,-726 741.88,-732 735.88,-738 729.88,-738 729.88,-738 673.12,-738 673.12,-738 667.12,-738 661.12,-732 661.12,-726 661.12,-726 661.12,-698 661.12,-698 661.12,-692 667.12,-686 673.12,-686"/>
<text text-anchor="middle" x="701.5" y="-725.45" font-family="Helvetica,sans-Serif" font-weight="bold" font-size="9.00">features</text>
</g>
<g id="clust11" class="cluster">
<title>cluster_src/type&#45;declarations</title>
<path fill="#ffffff" stroke="black" stroke-width="2" d="M913,-194C913,-194 1067.38,-194 1067.38,-194 1073.38,-194 1079.38,-200 1079.38,-206 1079.38,-206 1079.38,-294 1079.38,-294 1079.38,-300 1073.38,-306 1067.38,-306 1067.38,-306 913,-306 913,-306 907,-306 901,-300 901,-294 901,-294 901,-206 901,-206 901,-200 907,-194 913,-194"/>
<text text-anchor="middle" x="990.19" y="-293.45" font-family="Helvetica,sans-Serif" font-weight="bold" font-size="9.00">type&#45;declarations</text>
</g>
<g id="clust12" class="cluster">
<title>cluster_vite</title>
<path fill="#ffffff" stroke="black" stroke-width="2" d="M115.88,-8C115.88,-8 161.88,-8 161.88,-8 167.88,-8 173.88,-14 173.88,-20 173.88,-20 173.88,-48 173.88,-48 173.88,-54 167.88,-60 161.88,-60 161.88,-60 115.88,-60 115.88,-60 109.88,-60 103.88,-54 103.88,-48 103.88,-48 103.88,-20 103.88,-20 103.88,-14 109.88,-8 115.88,-8"/>
<text text-anchor="middle" x="138.88" y="-47.45" font-family="Helvetica,sans-Serif" font-weight="bold" font-size="9.00">vite</text>
</g>
<!-- src/App.scss -->
<g id="node1" class="node">
<title>src/App.scss</title>
<g id="a_node1"><a xlink:href="src/App.scss" xlink:title="App.scss">
<path fill="#ffffcc" stroke="black" d="M286.83,-307.88C286.83,-307.88 244.67,-307.88 244.67,-307.88 241.71,-307.88 238.75,-304.92 238.75,-301.96 238.75,-301.96 238.75,-296.04 238.75,-296.04 238.75,-293.08 241.71,-290.12 244.67,-290.12 244.67,-290.12 286.83,-290.12 286.83,-290.12 289.79,-290.12 292.75,-293.08 292.75,-296.04 292.75,-296.04 292.75,-301.96 292.75,-301.96 292.75,-304.92 289.79,-307.88 286.83,-307.88"/>
<text text-anchor="start" x="247.38" y="-295.32" font-family="Helvetica,sans-Serif" font-size="9.00">App.scss</text>
</a>
</g>
</g>
<!-- src/App.tsx -->
<g id="node2" class="node">
<title>src/App.tsx</title>
<g id="a_node2"><a xlink:href="src/App.tsx" xlink:title="App.tsx">
<path fill="#bbfeff" stroke="black" d="M159.96,-521.88C159.96,-521.88 117.79,-521.88 117.79,-521.88 114.83,-521.88 111.88,-518.92 111.88,-515.96 111.88,-515.96 111.88,-510.04 111.88,-510.04 111.88,-507.08 114.83,-504.12 117.79,-504.12 117.79,-504.12 159.96,-504.12 159.96,-504.12 162.92,-504.12 165.88,-507.08 165.88,-510.04 165.88,-510.04 165.88,-515.96 165.88,-515.96 165.88,-518.92 162.92,-521.88 159.96,-521.88"/>
<text text-anchor="start" x="123.88" y="-509.32" font-family="Helvetica,sans-Serif" font-size="9.00">App.tsx</text>
</a>
</g>
</g>
<!-- src/App.tsx&#45;&gt;src/App.scss -->
<g id="edge1" class="edge">
<title>src/App.tsx&#45;&gt;src/App.scss</title>
<path fill="none" stroke="black" d="M130.38,-503.8C130.38,-462.84 130.38,-299 130.38,-299 130.38,-299 232.14,-299 232.14,-299"/>
<polygon fill="black" stroke="black" points="237.14,-299 232.14,-301.25 235.85,-299 232.14,-299 232.14,-299 232.14,-299 235.85,-299 232.14,-296.75 237.14,-299"/>
</g>
<!-- src/ApplicationInsightsService.tsx -->
<g id="node3" class="node">
<title>src/ApplicationInsightsService.tsx</title>
<g id="a_node3"><a xlink:href="src/ApplicationInsightsService.tsx" xlink:title="ApplicationInsightsService.tsx">
<path fill="#bbfeff" stroke="black" d="M328.58,-337.88C328.58,-337.88 202.92,-337.88 202.92,-337.88 199.96,-337.88 197,-334.92 197,-331.96 197,-331.96 197,-326.04 197,-326.04 197,-323.08 199.96,-320.12 202.92,-320.12 202.92,-320.12 328.58,-320.12 328.58,-320.12 331.54,-320.12 334.5,-323.08 334.5,-326.04 334.5,-326.04 334.5,-331.96 334.5,-331.96 334.5,-334.92 331.54,-337.88 328.58,-337.88"/>
<text text-anchor="start" x="205" y="-325.32" font-family="Helvetica,sans-Serif" font-size="9.00">ApplicationInsightsService.tsx</text>
</a>
</g>
</g>
<!-- src/App.tsx&#45;&gt;src/ApplicationInsightsService.tsx -->
<g id="edge2" class="edge">
<title>src/App.tsx&#45;&gt;src/ApplicationInsightsService.tsx</title>
<path fill="none" stroke="black" d="M166.31,-506.66C184.63,-506.66 205.38,-506.66 205.38,-506.66 205.38,-506.66 205.38,-344.27 205.38,-344.27"/>
<polygon fill="black" stroke="black" points="205.38,-339.27 207.63,-344.27 205.38,-340.55 205.38,-344.27 205.38,-344.27 205.38,-344.27 205.38,-340.55 203.13,-344.27 205.38,-339.27"/>
</g>
<!-- src/components/CaseAssignment.tsx -->
<g id="node4" class="node">
<title>src/components/CaseAssignment.tsx</title>
<g id="a_node4"><a xlink:href="src/components/CaseAssignment.tsx" xlink:title="CaseAssignment.tsx">
<path fill="#bbfeff" stroke="black" d="M309.46,-461.88C309.46,-461.88 222.04,-461.88 222.04,-461.88 219.08,-461.88 216.12,-458.92 216.12,-455.96 216.12,-455.96 216.12,-450.04 216.12,-450.04 216.12,-447.08 219.08,-444.12 222.04,-444.12 222.04,-444.12 309.46,-444.12 309.46,-444.12 312.42,-444.12 315.38,-447.08 315.38,-450.04 315.38,-450.04 315.38,-455.96 315.38,-455.96 315.38,-458.92 312.42,-461.88 309.46,-461.88"/>
<text text-anchor="start" x="224.12" y="-449.32" font-family="Helvetica,sans-Serif" font-size="9.00">CaseAssignment.tsx</text>
</a>
</g>
</g>
<!-- src/App.tsx&#45;&gt;src/components/CaseAssignment.tsx -->
<g id="edge3" class="edge">
<title>src/App.tsx&#45;&gt;src/components/CaseAssignment.tsx</title>
<path fill="none" stroke="black" d="M165.91,-509.2C191.94,-509.2 227.38,-509.2 227.38,-509.2 227.38,-509.2 227.38,-468.5 227.38,-468.5"/>
<polygon fill="black" stroke="black" points="227.38,-463.5 229.63,-468.5 227.38,-464.78 227.38,-468.5 227.38,-468.5 227.38,-468.5 227.38,-464.78 225.13,-468.5 227.38,-463.5"/>
</g>
<!-- src/components/HeaderNavBar.tsx -->
<g id="node5" class="node">
<title>src/components/HeaderNavBar.tsx</title>
<g id="a_node5"><a xlink:href="src/components/HeaderNavBar.tsx" xlink:title="HeaderNavBar.tsx">
<path fill="#bbfeff" stroke="black" d="M305.33,-626.88C305.33,-626.88 226.17,-626.88 226.17,-626.88 223.21,-626.88 220.25,-623.92 220.25,-620.96 220.25,-620.96 220.25,-615.04 220.25,-615.04 220.25,-612.08 223.21,-609.12 226.17,-609.12 226.17,-609.12 305.33,-609.12 305.33,-609.12 308.29,-609.12 311.25,-612.08 311.25,-615.04 311.25,-615.04 311.25,-620.96 311.25,-620.96 311.25,-623.92 308.29,-626.88 305.33,-626.88"/>
<text text-anchor="start" x="228.25" y="-614.33" font-family="Helvetica,sans-Serif" font-size="9.00">HeaderNavBar.tsx</text>
</a>
</g>
</g>
<!-- src/App.tsx&#45;&gt;src/components/HeaderNavBar.tsx -->
<g id="edge4" class="edge">
<title>src/App.tsx&#45;&gt;src/components/HeaderNavBar.tsx</title>
<path fill="none" stroke="black" d="M165.93,-514.27C190.98,-514.27 224.38,-514.27 224.38,-514.27 224.38,-514.27 224.38,-602.58 224.38,-602.58"/>
<polygon fill="black" stroke="black" points="224.38,-607.58 222.13,-602.58 224.38,-606.29 224.38,-602.58 224.38,-602.58 224.38,-602.58 224.38,-606.29 226.63,-602.58 224.38,-607.58"/>
</g>
<!-- src/components/Home.tsx -->
<g id="node6" class="node">
<title>src/components/Home.tsx</title>
<g id="a_node6"><a xlink:href="src/components/Home.tsx" xlink:title="Home.tsx">
<path fill="#bbfeff" stroke="black" d="M286.96,-581.88C286.96,-581.88 244.54,-581.88 244.54,-581.88 241.58,-581.88 238.62,-578.92 238.62,-575.96 238.62,-575.96 238.62,-570.04 238.62,-570.04 238.62,-567.08 241.58,-564.12 244.54,-564.12 244.54,-564.12 286.96,-564.12 286.96,-564.12 289.92,-564.12 292.88,-567.08 292.88,-570.04 292.88,-570.04 292.88,-575.96 292.88,-575.96 292.88,-578.92 289.92,-581.88 286.96,-581.88"/>
<text text-anchor="start" x="246.62" y="-569.33" font-family="Helvetica,sans-Serif" font-size="9.00">Home.tsx</text>
</a>
</g>
</g>
<!-- src/App.tsx&#45;&gt;src/components/Home.tsx -->
<g id="edge5" class="edge">
<title>src/App.tsx&#45;&gt;src/components/Home.tsx</title>
<path fill="none" stroke="black" d="M166.3,-516.8C180.28,-516.8 194.38,-516.8 194.38,-516.8 194.38,-516.8 194.38,-573 194.38,-573 194.38,-573 232.14,-573 232.14,-573"/>
<polygon fill="black" stroke="black" points="237.14,-573 232.14,-575.25 235.86,-573 232.14,-573 232.14,-573 232.14,-573 235.86,-573 232.14,-570.75 237.14,-573"/>
</g>
<!-- src/components/NotFound.tsx -->
<g id="node7" class="node">
<title>src/components/NotFound.tsx</title>
<g id="a_node7"><a xlink:href="src/components/NotFound.tsx" xlink:title="NotFound.tsx">
<path fill="#bbfeff" stroke="black" d="M294.83,-521.88C294.83,-521.88 236.67,-521.88 236.67,-521.88 233.71,-521.88 230.75,-518.92 230.75,-515.96 230.75,-515.96 230.75,-510.04 230.75,-510.04 230.75,-507.08 233.71,-504.12 236.67,-504.12 236.67,-504.12 294.83,-504.12 294.83,-504.12 297.79,-504.12 300.75,-507.08 300.75,-510.04 300.75,-510.04 300.75,-515.96 300.75,-515.96 300.75,-518.92 297.79,-521.88 294.83,-521.88"/>
<text text-anchor="start" x="238.75" y="-509.32" font-family="Helvetica,sans-Serif" font-size="9.00">NotFound.tsx</text>
</a>
</g>
</g>
<!-- src/App.tsx&#45;&gt;src/components/NotFound.tsx -->
<g id="edge6" class="edge">
<title>src/App.tsx&#45;&gt;src/components/NotFound.tsx</title>
<path fill="none" stroke="black" d="M166.09,-511.73C166.09,-511.73 224.16,-511.73 224.16,-511.73"/>
<polygon fill="black" stroke="black" points="229.16,-511.73 224.16,-513.98 227.88,-511.73 224.16,-511.73 224.16,-511.73 224.16,-511.73 227.88,-511.73 224.16,-509.48 229.16,-511.73"/>
</g>
<!-- src/store/store.ts -->
<g id="node8" class="node">
<title>src/store/store.ts</title>
<g id="a_node8"><a xlink:href="src/store/store.ts" xlink:title="store.ts">
<path fill="#ddfeff" stroke="black" d="M578.46,-703.88C578.46,-703.88 536.29,-703.88 536.29,-703.88 533.33,-703.88 530.38,-700.92 530.38,-697.96 530.38,-697.96 530.38,-692.04 530.38,-692.04 530.38,-689.08 533.33,-686.12 536.29,-686.12 536.29,-686.12 578.46,-686.12 578.46,-686.12 581.42,-686.12 584.38,-689.08 584.38,-692.04 584.38,-692.04 584.38,-697.96 584.38,-697.96 584.38,-700.92 581.42,-703.88 578.46,-703.88"/>
<text text-anchor="start" x="542.75" y="-691.33" font-family="Helvetica,sans-Serif" font-size="9.00">store.ts</text>
</a>
</g>
</g>
<!-- src/App.tsx&#45;&gt;src/store/store.ts -->
<g id="edge7" class="edge">
<title>src/App.tsx&#45;&gt;src/store/store.ts</title>
<path fill="none" stroke="black" d="M166.36,-519.34C179.06,-519.34 191.38,-519.34 191.38,-519.34 191.38,-519.34 191.38,-697.96 191.38,-697.96 191.38,-697.96 523.95,-697.96 523.95,-697.96"/>
<polygon fill="black" stroke="black" points="528.95,-697.96 523.95,-700.21 527.66,-697.96 523.95,-697.96 523.95,-697.96 523.95,-697.96 527.66,-697.96 523.95,-695.71 528.95,-697.96"/>
</g>
<!-- src/components/AssignAttorneyModal.tsx -->
<g id="node10" class="node">
<title>src/components/AssignAttorneyModal.tsx</title>
<g id="a_node10"><a xlink:href="src/components/AssignAttorneyModal.tsx" xlink:title="AssignAttorneyModal.tsx">
<path fill="#bbfeff" stroke="black" d="M468.96,-371.88C468.96,-371.88 364.29,-371.88 364.29,-371.88 361.33,-371.88 358.38,-368.92 358.38,-365.96 358.38,-365.96 358.38,-360.04 358.38,-360.04 358.38,-357.08 361.33,-354.12 364.29,-354.12 364.29,-354.12 468.96,-354.12 468.96,-354.12 471.92,-354.12 474.88,-357.08 474.88,-360.04 474.88,-360.04 474.88,-365.96 474.88,-365.96 474.88,-368.92 471.92,-371.88 468.96,-371.88"/>
<text text-anchor="start" x="366.38" y="-359.32" font-family="Helvetica,sans-Serif" font-size="9.00">AssignAttorneyModal.tsx</text>
</a>
</g>
</g>
<!-- src/components/CaseAssignment.tsx&#45;&gt;src/components/AssignAttorneyModal.tsx -->
<g id="edge21" class="edge">
<title>src/components/CaseAssignment.tsx&#45;&gt;src/components/AssignAttorneyModal.tsx</title>
<path fill="none" stroke="black" d="M315.54,-450.02C331.15,-450.02 344.38,-450.02 344.38,-450.02 344.38,-450.02 344.38,-368.62 344.38,-368.62 344.38,-368.62 351.75,-368.62 351.75,-368.62"/>
<polygon fill="black" stroke="black" points="356.75,-368.63 351.75,-370.88 355.46,-368.63 351.75,-368.63 351.75,-368.63 351.75,-368.63 355.46,-368.63 351.75,-366.38 356.75,-368.63"/>
</g>
<!-- src/models/api.ts -->
<g id="node11" class="node">
<title>src/models/api.ts</title>
<g id="a_node11"><a xlink:href="src/models/api.ts" xlink:title="api.ts">
<path fill="#ddfeff" stroke="black" d="M578.46,-139.88C578.46,-139.88 536.29,-139.88 536.29,-139.88 533.33,-139.88 530.38,-136.92 530.38,-133.96 530.38,-133.96 530.38,-128.04 530.38,-128.04 530.38,-125.08 533.33,-122.12 536.29,-122.12 536.29,-122.12 578.46,-122.12 578.46,-122.12 581.42,-122.12 584.38,-125.08 584.38,-128.04 584.38,-128.04 584.38,-133.96 584.38,-133.96 584.38,-136.92 581.42,-139.88 578.46,-139.88"/>
<text text-anchor="start" x="546.5" y="-127.33" font-family="Helvetica,sans-Serif" font-size="9.00">api.ts</text>
</a>
</g>
</g>
<!-- src/components/CaseAssignment.tsx&#45;&gt;src/models/api.ts -->
<g id="edge16" class="edge">
<title>src/components/CaseAssignment.tsx&#45;&gt;src/models/api.ts</title>
<path fill="none" stroke="black" d="M315.77,-448.05C329.84,-448.05 341.38,-448.05 341.38,-448.05 341.38,-448.05 341.38,-329 341.38,-329 341.38,-329 557.38,-329 557.38,-329 557.38,-329 557.38,-146.5 557.38,-146.5"/>
<polygon fill="black" stroke="black" points="557.38,-141.5 559.63,-146.5 557.38,-142.78 557.38,-146.5 557.38,-146.5 557.38,-146.5 557.38,-142.78 555.13,-146.5 557.38,-141.5"/>
</g>
<!-- src/type&#45;declarations/attorneys.ts -->
<g id="node13" class="node">
<title>src/type&#45;declarations/attorneys.ts</title>
<g id="a_node13"><a xlink:href="src/type-declarations/attorneys.ts" xlink:title="attorneys.ts">
<path fill="#ddfeff" stroke="black" d="M972.71,-279.88C972.71,-279.88 922.04,-279.88 922.04,-279.88 919.08,-279.88 916.12,-276.92 916.12,-273.96 916.12,-273.96 916.12,-268.04 916.12,-268.04 916.12,-265.08 919.08,-262.12 922.04,-262.12 922.04,-262.12 972.71,-262.12 972.71,-262.12 975.67,-262.12 978.62,-265.08 978.62,-268.04 978.62,-268.04 978.62,-273.96 978.62,-273.96 978.62,-276.92 975.67,-279.88 972.71,-279.88"/>
<text text-anchor="start" x="924.12" y="-267.32" font-family="Helvetica,sans-Serif" font-size="9.00">attorneys.ts</text>
</a>
</g>
</g>
<!-- src/components/CaseAssignment.tsx&#45;&gt;src/type&#45;declarations/attorneys.ts -->
<g id="edge19" class="edge">
<title>src/components/CaseAssignment.tsx&#45;&gt;src/type&#45;declarations/attorneys.ts</title>
<path fill="none" stroke="black" d="M315.58,-451.98C332.58,-451.98 347.38,-451.98 347.38,-451.98 347.38,-451.98 347.38,-386 347.38,-386 347.38,-386 963.38,-386 963.38,-386 963.38,-386 963.38,-286.24 963.38,-286.24"/>
<polygon fill="black" stroke="black" points="963.38,-281.24 965.63,-286.24 963.38,-282.52 963.38,-286.24 963.38,-286.24 963.38,-286.24 963.38,-282.52 961.13,-286.24 963.38,-281.24"/>
</g>
<!-- src/type&#45;declarations/chapter&#45;15.d.ts -->
<g id="node14" class="node">
<title>src/type&#45;declarations/chapter&#45;15.d.ts</title>
<g id="a_node14"><a xlink:href="src/type-declarations/chapter-15.d.ts" xlink:title="chapter&#45;15.d.ts">
<path fill="#ddfeff" stroke="black" d="M979.83,-219.88C979.83,-219.88 914.92,-219.88 914.92,-219.88 911.96,-219.88 909,-216.92 909,-213.96 909,-213.96 909,-208.04 909,-208.04 909,-205.08 911.96,-202.12 914.92,-202.12 914.92,-202.12 979.83,-202.12 979.83,-202.12 982.79,-202.12 985.75,-205.08 985.75,-208.04 985.75,-208.04 985.75,-213.96 985.75,-213.96 985.75,-216.92 982.79,-219.88 979.83,-219.88"/>
<text text-anchor="start" x="917" y="-207.32" font-family="Helvetica,sans-Serif" font-size="9.00">chapter&#45;15.d.ts</text>
</a>
</g>
</g>
<!-- src/components/CaseAssignment.tsx&#45;&gt;src/type&#45;declarations/chapter&#45;15.d.ts -->
<g id="edge20" class="edge">
<title>src/components/CaseAssignment.tsx&#45;&gt;src/type&#45;declarations/chapter&#45;15.d.ts</title>
<path fill="none" stroke="black" d="M215.67,-453C200.31,-453 187.38,-453 187.38,-453 187.38,-453 187.38,-208.04 187.38,-208.04 187.38,-208.04 902.42,-208.04 902.42,-208.04"/>
<polygon fill="black" stroke="black" points="907.42,-208.04 902.42,-210.29 906.14,-208.04 902.42,-208.04 902.42,-208.04 902.42,-208.04 906.14,-208.04 902.42,-205.79 907.42,-208.04"/>
</g>
<!-- src/components/uswds/modal/Modal.tsx -->
<g id="node16" class="node">
<title>src/components/uswds/modal/Modal.tsx</title>
<g id="a_node16"><a xlink:href="src/components/uswds/modal/Modal.tsx" xlink:title="Modal.tsx">
<path fill="#bbfeff" stroke="black" d="M578.96,-479.88C578.96,-479.88 535.79,-479.88 535.79,-479.88 532.83,-479.88 529.88,-476.92 529.88,-473.96 529.88,-473.96 529.88,-468.04 529.88,-468.04 529.88,-465.08 532.83,-462.12 535.79,-462.12 535.79,-462.12 578.96,-462.12 578.96,-462.12 581.92,-462.12 584.88,-465.08 584.88,-468.04 584.88,-468.04 584.88,-473.96 584.88,-473.96 584.88,-476.92 581.92,-479.88 578.96,-479.88"/>
<text text-anchor="start" x="537.88" y="-467.32" font-family="Helvetica,sans-Serif" font-size="9.00">Modal.tsx</text>
</a>
</g>
</g>
<!-- src/components/CaseAssignment.tsx&#45;&gt;src/components/uswds/modal/Modal.tsx -->
<g id="edge24" class="edge">
<title>src/components/CaseAssignment.tsx&#45;&gt;src/components/uswds/modal/Modal.tsx</title>
<path fill="none" stroke="black" d="M309.38,-462.01C309.38,-467.69 309.38,-473.96 309.38,-473.96 309.38,-473.96 523.19,-473.96 523.19,-473.96"/>
<polygon fill="black" stroke="black" points="528.19,-473.96 523.19,-476.21 526.91,-473.96 523.19,-473.96 523.19,-473.96 523.19,-473.96 526.91,-473.96 523.19,-471.71 528.19,-473.96"/>
</g>
<!-- src/components/CaseAssignment.scss -->
<g id="node18" class="node">
<title>src/components/CaseAssignment.scss</title>
<g id="a_node18"><a xlink:href="src/components/CaseAssignment.scss" xlink:title="CaseAssignment.scss">
<path fill="#ffffcc" stroke="black" d="M463.71,-457.88C463.71,-457.88 369.54,-457.88 369.54,-457.88 366.58,-457.88 363.62,-454.92 363.62,-451.96 363.62,-451.96 363.62,-446.04 363.62,-446.04 363.62,-443.08 366.58,-440.12 369.54,-440.12 369.54,-440.12 463.71,-440.12 463.71,-440.12 466.67,-440.12 469.62,-443.08 469.62,-446.04 469.62,-446.04 469.62,-451.96 469.62,-451.96 469.62,-454.92 466.67,-457.88 463.71,-457.88"/>
<text text-anchor="start" x="371.62" y="-445.32" font-family="Helvetica,sans-Serif" font-size="9.00">CaseAssignment.scss</text>
</a>
</g>
</g>
<!-- src/components/CaseAssignment.tsx&#45;&gt;src/components/CaseAssignment.scss -->
<g id="edge22" class="edge">
<title>src/components/CaseAssignment.tsx&#45;&gt;src/components/CaseAssignment.scss</title>
<path fill="none" stroke="black" d="M315.57,-455.91C315.57,-455.91 357.01,-455.91 357.01,-455.91"/>
<polygon fill="black" stroke="black" points="362.01,-455.91 357.01,-458.16 360.72,-455.91 357.01,-455.91 357.01,-455.91 357.01,-455.91 360.72,-455.91 357.01,-453.66 362.01,-455.91"/>
</g>
<!-- src/models/attorneys&#45;api.ts -->
<g id="node19" class="node">
<title>src/models/attorneys&#45;api.ts</title>
<g id="a_node19"><a xlink:href="src/models/attorneys-api.ts" xlink:title="attorneys&#45;api.ts">
<path fill="#ddfeff" stroke="black" d="M449.83,-139.88C449.83,-139.88 383.42,-139.88 383.42,-139.88 380.46,-139.88 377.5,-136.92 377.5,-133.96 377.5,-133.96 377.5,-128.04 377.5,-128.04 377.5,-125.08 380.46,-122.12 383.42,-122.12 383.42,-122.12 449.83,-122.12 449.83,-122.12 452.79,-122.12 455.75,-125.08 455.75,-128.04 455.75,-128.04 455.75,-133.96 455.75,-133.96 455.75,-136.92 452.79,-139.88 449.83,-139.88"/>
<text text-anchor="start" x="385.5" y="-127.33" font-family="Helvetica,sans-Serif" font-size="9.00">attorneys&#45;api.ts</text>
</a>
</g>
</g>
<!-- src/components/CaseAssignment.tsx&#45;&gt;src/models/attorneys&#45;api.ts -->
<g id="edge17" class="edge">
<title>src/components/CaseAssignment.tsx&#45;&gt;src/models/attorneys&#45;api.ts</title>
<path fill="none" stroke="black" d="M315.79,-446.09C328.37,-446.09 338.38,-446.09 338.38,-446.09 338.38,-446.09 338.38,-131 338.38,-131 338.38,-131 370.82,-131 370.82,-131"/>
<polygon fill="black" stroke="black" points="375.82,-131 370.82,-133.25 374.54,-131 370.82,-131 370.82,-131 370.82,-131 374.54,-131 370.82,-128.75 375.82,-131"/>
</g>
<!-- src/models/chapter15&#45;mock.api.cases.ts -->
<g id="node20" class="node">
<title>src/models/chapter15&#45;mock.api.cases.ts</title>
<g id="a_node20"><a xlink:href="src/models/chapter15-mock.api.cases.ts" xlink:title="chapter15&#45;mock.api.cases.ts">
<path fill="#ddfeff" stroke="black" d="M476.83,-109.88C476.83,-109.88 356.42,-109.88 356.42,-109.88 353.46,-109.88 350.5,-106.92 350.5,-103.96 350.5,-103.96 350.5,-98.04 350.5,-98.04 350.5,-95.08 353.46,-92.12 356.42,-92.12 356.42,-92.12 476.83,-92.12 476.83,-92.12 479.79,-92.12 482.75,-95.08 482.75,-98.04 482.75,-98.04 482.75,-103.96 482.75,-103.96 482.75,-106.92 479.79,-109.88 476.83,-109.88"/>
<text text-anchor="start" x="358.5" y="-97.33" font-family="Helvetica,sans-Serif" font-size="9.00">chapter15&#45;mock.api.cases.ts</text>
</a>
</g>
</g>
<!-- src/components/CaseAssignment.tsx&#45;&gt;src/models/chapter15&#45;mock.api.cases.ts -->
<g id="edge18" class="edge">
<title>src/components/CaseAssignment.tsx&#45;&gt;src/models/chapter15&#45;mock.api.cases.ts</title>
<path fill="none" stroke="black" d="M315.8,-453.95C336.33,-453.95 355.38,-453.95 355.38,-453.95 355.38,-453.95 355.38,-116.3 355.38,-116.3"/>
<polygon fill="black" stroke="black" points="355.38,-111.3 357.63,-116.3 355.38,-112.58 355.38,-116.3 355.38,-116.3 355.38,-116.3 355.38,-112.58 353.13,-116.3 355.38,-111.3"/>
</g>
<!-- src/components/uswds/Alert.tsx -->
<g id="node21" class="node">
<title>src/components/uswds/Alert.tsx</title>
<g id="a_node21"><a xlink:href="src/components/uswds/Alert.tsx" xlink:title="Alert.tsx">
<path fill="#bbfeff" stroke="black" d="M722.58,-559.88C722.58,-559.88 680.42,-559.88 680.42,-559.88 677.46,-559.88 674.5,-556.92 674.5,-553.96 674.5,-553.96 674.5,-548.04 674.5,-548.04 674.5,-545.08 677.46,-542.12 680.42,-542.12 680.42,-542.12 722.58,-542.12 722.58,-542.12 725.54,-542.12 728.5,-545.08 728.5,-548.04 728.5,-548.04 728.5,-553.96 728.5,-553.96 728.5,-556.92 725.54,-559.88 722.58,-559.88"/>
<text text-anchor="start" x="685.38" y="-547.33" font-family="Helvetica,sans-Serif" font-size="9.00">Alert.tsx</text>
</a>
</g>
</g>
<!-- src/components/CaseAssignment.tsx&#45;&gt;src/components/uswds/Alert.tsx -->
<g id="edge23" class="edge">
<title>src/components/CaseAssignment.tsx&#45;&gt;src/components/uswds/Alert.tsx</title>
<path fill="none" stroke="black" d="M303.38,-462.2C303.38,-479.95 303.38,-517.21 303.38,-517.21 303.38,-517.21 702.38,-517.21 702.38,-517.21 702.38,-517.21 702.38,-535.55 702.38,-535.55"/>
<polygon fill="black" stroke="black" points="702.38,-540.55 700.13,-535.55 702.38,-539.27 702.38,-535.55 702.38,-535.55 702.38,-535.55 702.38,-539.27 704.63,-535.55 702.38,-540.55"/>
</g>
<!-- src/components/uswds/modal/ToggleModalButton.tsx -->
<g id="node22" class="node">
<title>src/components/uswds/modal/ToggleModalButton.tsx</title>
<g id="a_node22"><a xlink:href="src/components/uswds/modal/ToggleModalButton.tsx" xlink:title="ToggleModalButton.tsx">
<path fill="#bbfeff" stroke="black" d="M887.08,-507.88C887.08,-507.88 789.92,-507.88 789.92,-507.88 786.96,-507.88 784,-504.92 784,-501.96 784,-501.96 784,-496.04 784,-496.04 784,-493.08 786.96,-490.12 789.92,-490.12 789.92,-490.12 887.08,-490.12 887.08,-490.12 890.04,-490.12 893,-493.08 893,-496.04 893,-496.04 893,-501.96 893,-501.96 893,-504.92 890.04,-507.88 887.08,-507.88"/>
<text text-anchor="start" x="792" y="-495.32" font-family="Helvetica,sans-Serif" font-size="9.00">ToggleModalButton.tsx</text>
</a>
</g>
</g>
<!-- src/components/CaseAssignment.tsx&#45;&gt;src/components/uswds/modal/ToggleModalButton.tsx -->
<g id="edge25" class="edge">
<title>src/components/CaseAssignment.tsx&#45;&gt;src/components/uswds/modal/ToggleModalButton.tsx</title>
<path fill="none" stroke="black" d="M306.38,-462.3C306.38,-479.05 306.38,-512.54 306.38,-512.54 306.38,-512.54 801.38,-512.54 801.38,-512.54 801.38,-512.54 801.38,-512.11 801.38,-512.11"/>
<polygon fill="black" stroke="black" points="801.38,-509.48 803.63,-514.48 801.38,-510.76 801.38,-514.48 801.38,-514.48 801.38,-514.48 801.38,-510.76 799.13,-514.48 801.38,-509.48"/>
</g>
<!-- src/components/HeaderNavBar.scss -->
<g id="node23" class="node">
<title>src/components/HeaderNavBar.scss</title>
<g id="a_node23"><a xlink:href="src/components/HeaderNavBar.scss" xlink:title="HeaderNavBar.scss">
<path fill="#ffffcc" stroke="black" d="M459.58,-641.88C459.58,-641.88 373.67,-641.88 373.67,-641.88 370.71,-641.88 367.75,-638.92 367.75,-635.96 367.75,-635.96 367.75,-630.04 367.75,-630.04 367.75,-627.08 370.71,-624.12 373.67,-624.12 373.67,-624.12 459.58,-624.12 459.58,-624.12 462.54,-624.12 465.5,-627.08 465.5,-630.04 465.5,-630.04 465.5,-635.96 465.5,-635.96 465.5,-638.92 462.54,-641.88 459.58,-641.88"/>
<text text-anchor="start" x="375.75" y="-629.33" font-family="Helvetica,sans-Serif" font-size="9.00">HeaderNavBar.scss</text>
</a>
</g>
</g>
<!-- src/components/HeaderNavBar.tsx&#45;&gt;src/components/HeaderNavBar.scss -->
<g id="edge26" class="edge">
<title>src/components/HeaderNavBar.tsx&#45;&gt;src/components/HeaderNavBar.scss</title>
<path fill="none" stroke="black" d="M311.47,-618C342.3,-618 377.38,-618 377.38,-618 377.38,-618 377.38,-618.58 377.38,-618.58"/>
<polygon fill="black" stroke="black" points="377.38,-622.54 375.13,-617.54 377.38,-621.26 377.38,-617.54 377.38,-617.54 377.38,-617.54 377.38,-621.26 379.63,-617.54 377.38,-622.54"/>
</g>
<!-- src/components/Home.scss -->
<g id="node24" class="node">
<title>src/components/Home.scss</title>
<g id="a_node24"><a xlink:href="src/components/Home.scss" xlink:title="Home.scss">
<path fill="#ffffcc" stroke="black" d="M441.21,-611.88C441.21,-611.88 392.04,-611.88 392.04,-611.88 389.08,-611.88 386.12,-608.92 386.12,-605.96 386.12,-605.96 386.12,-600.04 386.12,-600.04 386.12,-597.08 389.08,-594.12 392.04,-594.12 392.04,-594.12 441.21,-594.12 441.21,-594.12 444.17,-594.12 447.12,-597.08 447.12,-600.04 447.12,-600.04 447.12,-605.96 447.12,-605.96 447.12,-608.92 444.17,-611.88 441.21,-611.88"/>
<text text-anchor="start" x="394.12" y="-599.33" font-family="Helvetica,sans-Serif" font-size="9.00">Home.scss</text>
</a>
</g>
</g>
<!-- src/components/Home.tsx&#45;&gt;src/components/Home.scss -->
<g id="edge27" class="edge">
<title>src/components/Home.tsx&#45;&gt;src/components/Home.scss</title>
<path fill="none" stroke="black" d="M266.38,-582.37C266.38,-590.72 266.38,-601.62 266.38,-601.62 266.38,-601.62 379.64,-601.62 379.64,-601.62"/>
<polygon fill="black" stroke="black" points="384.64,-601.63 379.64,-603.88 383.36,-601.63 379.64,-601.63 379.64,-601.63 379.64,-601.63 383.36,-601.63 379.64,-599.38 384.64,-601.63"/>
</g>
<!-- src/components/Login.tsx -->
<g id="node25" class="node">
<title>src/components/Login.tsx</title>
<g id="a_node25"><a xlink:href="src/components/Login.tsx" xlink:title="Login.tsx">
<path fill="#bbfeff" stroke="black" d="M437.71,-581.88C437.71,-581.88 395.54,-581.88 395.54,-581.88 392.58,-581.88 389.62,-578.92 389.62,-575.96 389.62,-575.96 389.62,-570.04 389.62,-570.04 389.62,-567.08 392.58,-564.12 395.54,-564.12 395.54,-564.12 437.71,-564.12 437.71,-564.12 440.67,-564.12 443.62,-567.08 443.62,-570.04 443.62,-570.04 443.62,-575.96 443.62,-575.96 443.62,-578.92 440.67,-581.88 437.71,-581.88"/>
<text text-anchor="start" x="398.25" y="-569.33" font-family="Helvetica,sans-Serif" font-size="9.00">Login.tsx</text>
</a>
</g>
</g>
<!-- src/components/Home.tsx&#45;&gt;src/components/Login.tsx -->
<g id="edge28" class="edge">
<title>src/components/Home.tsx&#45;&gt;src/components/Login.tsx</title>
<path fill="none" stroke="black" d="M293.07,-573C293.07,-573 383.03,-573 383.03,-573"/>
<polygon fill="black" stroke="black" points="388.03,-573 383.03,-575.25 386.75,-573 383.03,-573 383.03,-573 383.03,-573 386.75,-573 383.03,-570.75 388.03,-573"/>
</g>
<!-- src/store/features/UserSlice.ts -->
<g id="node27" class="node">
<title>src/store/features/UserSlice.ts</title>
<g id="a_node27"><a xlink:href="src/store/features/UserSlice.ts" xlink:title="UserSlice.ts">
<path fill="#ddfeff" stroke="black" d="M727.96,-711.88C727.96,-711.88 675.04,-711.88 675.04,-711.88 672.08,-711.88 669.12,-708.92 669.12,-705.96 669.12,-705.96 669.12,-700.04 669.12,-700.04 669.12,-697.08 672.08,-694.12 675.04,-694.12 675.04,-694.12 727.96,-694.12 727.96,-694.12 730.92,-694.12 733.88,-697.08 733.88,-700.04 733.88,-700.04 733.88,-705.96 733.88,-705.96 733.88,-708.92 730.92,-711.88 727.96,-711.88"/>
<text text-anchor="start" x="677.12" y="-699.33" font-family="Helvetica,sans-Serif" font-size="9.00">UserSlice.ts</text>
</a>
</g>
</g>
<!-- src/store/store.ts&#45;&gt;src/store/features/UserSlice.ts -->
<g id="edge61" class="edge">
<title>src/store/store.ts&#45;&gt;src/store/features/UserSlice.ts</title>
<path fill="none" stroke="black" d="M584.82,-699C584.82,-699 662.64,-699 662.64,-699"/>
<polygon fill="black" stroke="black" points="667.64,-699 662.64,-701.25 666.36,-699 662.64,-699 662.64,-699 662.64,-699 666.36,-699 662.64,-696.75 667.64,-699"/>
</g>
<!-- src/components/AssignAttorneyModal.scss -->
<g id="node9" class="node">
<title>src/components/AssignAttorneyModal.scss</title>
<g id="a_node9"><a xlink:href="src/components/AssignAttorneyModal.scss" xlink:title="AssignAttorneyModal.scss">
<path fill="#ffffcc" stroke="black" d="M613.08,-371.88C613.08,-371.88 501.67,-371.88 501.67,-371.88 498.71,-371.88 495.75,-368.92 495.75,-365.96 495.75,-365.96 495.75,-360.04 495.75,-360.04 495.75,-357.08 498.71,-354.12 501.67,-354.12 501.67,-354.12 613.08,-354.12 613.08,-354.12 616.04,-354.12 619,-357.08 619,-360.04 619,-360.04 619,-365.96 619,-365.96 619,-368.92 616.04,-371.88 613.08,-371.88"/>
<text text-anchor="start" x="503.75" y="-359.32" font-family="Helvetica,sans-Serif" font-size="9.00">AssignAttorneyModal.scss</text>
</a>
</g>
</g>
<!-- src/components/AssignAttorneyModal.tsx&#45;&gt;src/components/AssignAttorneyModal.scss -->
<g id="edge12" class="edge">
<title>src/components/AssignAttorneyModal.tsx&#45;&gt;src/components/AssignAttorneyModal.scss</title>
<path fill="none" stroke="black" d="M475.09,-365.96C475.09,-365.96 489.46,-365.96 489.46,-365.96"/>
<polygon fill="black" stroke="black" points="494.46,-365.96 489.46,-368.21 493.18,-365.96 489.46,-365.96 489.46,-365.96 489.46,-365.96 493.18,-365.96 489.46,-363.71 494.46,-365.96"/>
</g>
<!-- src/components/AssignAttorneyModal.tsx&#45;&gt;src/models/api.ts -->
<g id="edge8" class="edge">
<title>src/components/AssignAttorneyModal.tsx&#45;&gt;src/models/api.ts</title>
<path fill="none" stroke="black" d="M459.38,-353.91C459.38,-311.01 459.38,-131 459.38,-131 459.38,-131 523.86,-131 523.86,-131"/>
<polygon fill="black" stroke="black" points="528.86,-131 523.86,-133.25 527.58,-131 523.86,-131 523.86,-131 523.86,-131 527.58,-131 523.86,-128.75 528.86,-131"/>
</g>
<!-- src/type&#45;declarations/api.d.ts -->
<g id="node12" class="node">
<title>src/type&#45;declarations/api.d.ts</title>
<g id="a_node12"><a xlink:href="src/type-declarations/api.d.ts" xlink:title="api.d.ts">
<path fill="#ddfeff" stroke="black" d="M1065.46,-219.88C1065.46,-219.88 1023.29,-219.88 1023.29,-219.88 1020.33,-219.88 1017.38,-216.92 1017.38,-213.96 1017.38,-213.96 1017.38,-208.04 1017.38,-208.04 1017.38,-205.08 1020.33,-202.12 1023.29,-202.12 1023.29,-202.12 1065.46,-202.12 1065.46,-202.12 1068.42,-202.12 1071.38,-205.08 1071.38,-208.04 1071.38,-208.04 1071.38,-213.96 1071.38,-213.96 1071.38,-216.92 1068.42,-219.88 1065.46,-219.88"/>
<text text-anchor="start" x="1029.75" y="-207.32" font-family="Helvetica,sans-Serif" font-size="9.00">api.d.ts</text>
</a>
</g>
</g>
<!-- src/components/AssignAttorneyModal.tsx&#45;&gt;src/type&#45;declarations/api.d.ts -->
<g id="edge9" class="edge">
<title>src/components/AssignAttorneyModal.tsx&#45;&gt;src/type&#45;declarations/api.d.ts</title>
<path fill="none" stroke="black" d="M469.38,-353.7C469.38,-349.74 469.38,-346 469.38,-346 469.38,-346 1044.38,-346 1044.38,-346 1044.38,-346 1044.38,-226.5 1044.38,-226.5"/>
<polygon fill="black" stroke="black" points="1044.38,-221.5 1046.63,-226.5 1044.38,-222.78 1044.38,-226.5 1044.38,-226.5 1044.38,-226.5 1044.38,-222.78 1042.13,-226.5 1044.38,-221.5"/>
</g>
<!-- src/components/AssignAttorneyModal.tsx&#45;&gt;src/type&#45;declarations/attorneys.ts -->
<g id="edge10" class="edge">
<title>src/components/AssignAttorneyModal.tsx&#45;&gt;src/type&#45;declarations/attorneys.ts</title>
<path fill="none" stroke="black" d="M465.38,-353.95C465.38,-348.24 465.38,-341.94 465.38,-341.94 465.38,-341.94 947.38,-341.94 947.38,-341.94 947.38,-341.94 947.38,-286.49 947.38,-286.49"/>
<polygon fill="black" stroke="black" points="947.38,-281.49 949.63,-286.49 947.38,-282.77 947.38,-286.49 947.38,-286.49 947.38,-286.49 947.38,-282.77 945.13,-286.49 947.38,-281.49"/>
</g>
<!-- src/components/AssignAttorneyModal.tsx&#45;&gt;src/type&#45;declarations/chapter&#45;15.d.ts -->
<g id="edge11" class="edge">
<title>src/components/AssignAttorneyModal.tsx&#45;&gt;src/type&#45;declarations/chapter&#45;15.d.ts</title>
<path fill="none" stroke="black" d="M462.38,-353.68C462.38,-321.05 462.38,-213.96 462.38,-213.96 462.38,-213.96 902.29,-213.96 902.29,-213.96"/>
<polygon fill="black" stroke="black" points="907.29,-213.96 902.29,-216.21 906.01,-213.96 902.29,-213.96 902.29,-213.96 902.29,-213.96 906.01,-213.96 902.29,-211.71 907.29,-213.96"/>
</g>
<!-- src/components/uswds/Checkbox.tsx -->
<g id="node15" class="node">
<title>src/components/uswds/Checkbox.tsx</title>
<g id="a_node15"><a xlink:href="src/components/uswds/Checkbox.tsx" xlink:title="Checkbox.tsx">
<path fill="#bbfeff" stroke="black" d="M586.83,-445.88C586.83,-445.88 527.92,-445.88 527.92,-445.88 524.96,-445.88 522,-442.92 522,-439.96 522,-439.96 522,-434.04 522,-434.04 522,-431.08 524.96,-428.12 527.92,-428.12 527.92,-428.12 586.83,-428.12 586.83,-428.12 589.79,-428.12 592.75,-431.08 592.75,-434.04 592.75,-434.04 592.75,-439.96 592.75,-439.96 592.75,-442.92 589.79,-445.88 586.83,-445.88"/>
<text text-anchor="start" x="530" y="-433.32" font-family="Helvetica,sans-Serif" font-size="9.00">Checkbox.tsx</text>
</a>
</g>
</g>
<!-- src/components/AssignAttorneyModal.tsx&#45;&gt;src/components/uswds/Checkbox.tsx -->
<g id="edge13" class="edge">
<title>src/components/AssignAttorneyModal.tsx&#45;&gt;src/components/uswds/Checkbox.tsx</title>
<path fill="none" stroke="black" d="M417.38,-372.3C417.38,-391.58 417.38,-434.12 417.38,-434.12 417.38,-434.12 515.47,-434.12 515.47,-434.12"/>
<polygon fill="black" stroke="black" points="520.47,-434.13 515.47,-436.38 519.18,-434.13 515.47,-434.13 515.47,-434.13 515.47,-434.13 519.18,-434.13 515.47,-431.88 520.47,-434.13"/>
</g>
<!-- src/components/AssignAttorneyModal.tsx&#45;&gt;src/components/uswds/modal/Modal.tsx -->
<g id="edge14" class="edge">
<title>src/components/AssignAttorneyModal.tsx&#45;&gt;src/components/uswds/modal/Modal.tsx</title>
<path fill="none" stroke="black" d="M475.26,-360.04C477.84,-360.04 479.38,-360.04 479.38,-360.04 479.38,-360.04 479.38,-468.04 479.38,-468.04 479.38,-468.04 523.44,-468.04 523.44,-468.04"/>
<polygon fill="black" stroke="black" points="528.44,-468.04 523.44,-470.29 527.16,-468.04 523.44,-468.04 523.44,-468.04 523.44,-468.04 527.16,-468.04 523.44,-465.79 528.44,-468.04"/>
</g>
<!-- src/components/uswds/modal/modal&#45;refs.d.ts -->
<g id="node17" class="node">
<title>src/components/uswds/modal/modal&#45;refs.d.ts</title>
<g id="a_node17"><a xlink:href="src/components/uswds/modal/modal-refs.d.ts" xlink:title="modal&#45;refs.d.ts">
<path fill="#ddfeff" stroke="black" d="M979.46,-482.88C979.46,-482.88 915.29,-482.88 915.29,-482.88 912.33,-482.88 909.38,-479.92 909.38,-476.96 909.38,-476.96 909.38,-471.04 909.38,-471.04 909.38,-468.08 912.33,-465.12 915.29,-465.12 915.29,-465.12 979.46,-465.12 979.46,-465.12 982.42,-465.12 985.38,-468.08 985.38,-471.04 985.38,-471.04 985.38,-476.96 985.38,-476.96 985.38,-479.92 982.42,-482.88 979.46,-482.88"/>
<text text-anchor="start" x="917.38" y="-470.32" font-family="Helvetica,sans-Serif" font-size="9.00">modal&#45;refs.d.ts</text>
</a>
</g>
</g>
<!-- src/components/AssignAttorneyModal.tsx&#45;&gt;src/components/uswds/modal/modal&#45;refs.d.ts -->
<g id="edge15" class="edge">
<title>src/components/AssignAttorneyModal.tsx&#45;&gt;src/components/uswds/modal/modal&#45;refs.d.ts</title>
<path fill="none" stroke="black" d="M472.38,-353.87C472.38,-351.73 472.38,-350.06 472.38,-350.06 472.38,-350.06 932.38,-350.06 932.38,-350.06 932.38,-350.06 932.38,-458.47 932.38,-458.47"/>
<polygon fill="black" stroke="black" points="932.38,-463.47 930.13,-458.47 932.38,-462.18 932.38,-458.47 932.38,-458.47 932.38,-458.47 932.38,-462.18 934.63,-458.47 932.38,-463.47"/>
</g>
<!-- src/models/api.ts&#45;&gt;src/type&#45;declarations/api.d.ts -->
<g id="edge55" class="edge">
<title>src/models/api.ts&#45;&gt;src/type&#45;declarations/api.d.ts</title>
<path fill="none" stroke="black" d="M584.79,-130.54C686.36,-130.54 1035.38,-130.54 1035.38,-130.54 1035.38,-130.54 1035.38,-195.55 1035.38,-195.55"/>
<polygon fill="black" stroke="black" points="1035.38,-200.55 1033.13,-195.55 1035.38,-199.27 1035.38,-195.55 1035.38,-195.55 1035.38,-195.55 1035.38,-199.27 1037.63,-195.55 1035.38,-200.55"/>
</g>
<!-- src/type&#45;declarations/basic.d.ts -->
<g id="node37" class="node">
<title>src/type&#45;declarations/basic.d.ts</title>
<g id="a_node37"><a xlink:href="src/type-declarations/basic.d.ts" xlink:title="basic.d.ts">
<path fill="#ddfeff" stroke="black" d="M968.58,-249.88C968.58,-249.88 926.17,-249.88 926.17,-249.88 923.21,-249.88 920.25,-246.92 920.25,-243.96 920.25,-243.96 920.25,-238.04 920.25,-238.04 920.25,-235.08 923.21,-232.12 926.17,-232.12 926.17,-232.12 968.58,-232.12 968.58,-232.12 971.54,-232.12 974.5,-235.08 974.5,-238.04 974.5,-238.04 974.5,-243.96 974.5,-243.96 974.5,-246.92 971.54,-249.88 968.58,-249.88"/>
<text text-anchor="start" x="928.25" y="-237.32" font-family="Helvetica,sans-Serif" font-size="9.00">basic.d.ts</text>
</a>
</g>
</g>
<!-- src/models/api.ts&#45;&gt;src/type&#45;declarations/basic.d.ts -->
<g id="edge56" class="edge">
<title>src/models/api.ts&#45;&gt;src/type&#45;declarations/basic.d.ts</title>
<path fill="none" stroke="black" d="M584.76,-135.21C638.24,-135.21 751.38,-135.21 751.38,-135.21 751.38,-135.21 751.38,-238.06 751.38,-238.06 751.38,-238.06 913.9,-238.06 913.9,-238.06"/>
<polygon fill="black" stroke="black" points="918.9,-238.06 913.9,-240.31 917.62,-238.06 913.9,-238.06 913.9,-238.06 913.9,-238.06 917.62,-238.06 913.9,-235.81 918.9,-238.06"/>
</g>
<!-- src/components/utils/http.adapter.ts -->
<g id="node38" class="node">
<title>src/components/utils/http.adapter.ts</title>
<g id="a_node38"><a xlink:href="src/components/utils/http.adapter.ts" xlink:title="http.adapter.ts">
<path fill="#ddfeff" stroke="black" d="M296.71,-379.88C296.71,-379.88 234.79,-379.88 234.79,-379.88 231.83,-379.88 228.88,-376.92 228.88,-373.96 228.88,-373.96 228.88,-368.04 228.88,-368.04 228.88,-365.08 231.83,-362.12 234.79,-362.12 234.79,-362.12 296.71,-362.12 296.71,-362.12 299.67,-362.12 302.62,-365.08 302.62,-368.04 302.62,-368.04 302.62,-373.96 302.62,-373.96 302.62,-376.92 299.67,-379.88 296.71,-379.88"/>
<text text-anchor="start" x="236.88" y="-367.32" font-family="Helvetica,sans-Serif" font-size="9.00">http.adapter.ts</text>
</a>
</g>
</g>
<!-- src/models/api.ts&#45;&gt;src/components/utils/http.adapter.ts -->
<g id="edge53" class="edge">
<title>src/models/api.ts&#45;&gt;src/components/utils/http.adapter.ts</title>
<path fill="none" stroke="black" d="M530.11,-133.96C510.46,-133.96 487.38,-133.96 487.38,-133.96 487.38,-133.96 487.38,-375.88 487.38,-375.88 487.38,-375.88 309.31,-375.88 309.31,-375.88"/>
<polygon fill="black" stroke="black" points="304.31,-375.88 309.31,-373.63 305.6,-375.88 309.31,-375.88 309.31,-375.88 309.31,-375.88 305.6,-375.88 309.31,-378.13 304.31,-375.88"/>
</g>
<!-- src/configuration/apiConfiguration.ts -->
<g id="node40" class="node">
<title>src/configuration/apiConfiguration.ts</title>
<g id="a_node40"><a xlink:href="src/configuration/apiConfiguration.ts" xlink:title="apiConfiguration.ts">
<path fill="#ddfeff" stroke="black" d="M742.21,-125.88C742.21,-125.88 660.79,-125.88 660.79,-125.88 657.83,-125.88 654.88,-122.92 654.88,-119.96 654.88,-119.96 654.88,-114.04 654.88,-114.04 654.88,-111.08 657.83,-108.12 660.79,-108.12 660.79,-108.12 742.21,-108.12 742.21,-108.12 745.17,-108.12 748.12,-111.08 748.12,-114.04 748.12,-114.04 748.12,-119.96 748.12,-119.96 748.12,-122.92 745.17,-125.88 742.21,-125.88"/>
<text text-anchor="start" x="662.88" y="-113.33" font-family="Helvetica,sans-Serif" font-size="9.00">apiConfiguration.ts</text>
</a>
</g>
</g>
<!-- src/models/api.ts&#45;&gt;src/configuration/apiConfiguration.ts -->
<g id="edge54" class="edge">
<title>src/models/api.ts&#45;&gt;src/configuration/apiConfiguration.ts</title>
<path fill="none" stroke="black" d="M557.38,-121.76C557.38,-118.67 557.38,-116 557.38,-116 557.38,-116 648.49,-116 648.49,-116"/>
<polygon fill="black" stroke="black" points="653.49,-116 648.49,-118.25 652.21,-116 648.49,-116 648.49,-116 648.49,-116 652.21,-116 648.49,-113.75 653.49,-116"/>
</g>
<!-- src/type&#45;declarations/chapter&#45;15.d.ts&#45;&gt;src/type&#45;declarations/api.d.ts -->
<g id="edge62" class="edge">
<title>src/type&#45;declarations/chapter&#45;15.d.ts&#45;&gt;src/type&#45;declarations/api.d.ts</title>
<path fill="none" stroke="black" d="M985.99,-211C985.99,-211 1010.72,-211 1010.72,-211"/>
<polygon fill="black" stroke="black" points="1015.72,-211 1010.72,-213.25 1014.44,-211 1010.72,-211 1010.72,-211 1010.72,-211 1014.44,-211 1010.72,-208.75 1015.72,-211"/>
</g>
<!-- src/components/uswds/Checkbox.scss -->
<g id="node32" class="node">
<title>src/components/uswds/Checkbox.scss</title>
<g id="a_node32"><a xlink:href="src/components/uswds/Checkbox.scss" xlink:title="Checkbox.scss">
<path fill="#ffffcc" stroke="black" d="M734.33,-435.88C734.33,-435.88 668.67,-435.88 668.67,-435.88 665.71,-435.88 662.75,-432.92 662.75,-429.96 662.75,-429.96 662.75,-424.04 662.75,-424.04 662.75,-421.08 665.71,-418.12 668.67,-418.12 668.67,-418.12 734.33,-418.12 734.33,-418.12 737.29,-418.12 740.25,-421.08 740.25,-424.04 740.25,-424.04 740.25,-429.96 740.25,-429.96 740.25,-432.92 737.29,-435.88 734.33,-435.88"/>
<text text-anchor="start" x="670.75" y="-423.32" font-family="Helvetica,sans-Serif" font-size="9.00">Checkbox.scss</text>
</a>
</g>
</g>
<!-- src/components/uswds/Checkbox.tsx&#45;&gt;src/components/uswds/Checkbox.scss -->
<g id="edge36" class="edge">
<title>src/components/uswds/Checkbox.tsx&#45;&gt;src/components/uswds/Checkbox.scss</title>
<path fill="none" stroke="black" d="M593,-432C593,-432 656.27,-432 656.27,-432"/>
<polygon fill="black" stroke="black" points="661.27,-432 656.27,-434.25 659.99,-432 656.27,-432 656.27,-432 656.27,-432 659.99,-432 656.27,-429.75 661.27,-432"/>
</g>
<!-- src/components/uswds/modal/Modal.tsx&#45;&gt;src/components/uswds/modal/modal&#45;refs.d.ts -->
<g id="edge40" class="edge">
<title>src/components/uswds/modal/Modal.tsx&#45;&gt;src/components/uswds/modal/modal&#45;refs.d.ts</title>
<path fill="none" stroke="black" d="M585.11,-472.5C585.11,-472.5 902.93,-472.5 902.93,-472.5"/>
<polygon fill="black" stroke="black" points="907.93,-472.5 902.93,-474.75 906.65,-472.5 902.93,-472.5 902.93,-472.5 902.93,-472.5 906.65,-472.5 902.93,-470.25 907.93,-472.5"/>
</g>
<!-- src/components/uswds/Button.tsx -->
<g id="node30" class="node">
<title>src/components/uswds/Button.tsx</title>
<g id="a_node30"><a xlink:href="src/components/uswds/Button.tsx" xlink:title="Button.tsx">
<path fill="#bbfeff" stroke="black" d="M969.33,-559.88C969.33,-559.88 925.42,-559.88 925.42,-559.88 922.46,-559.88 919.5,-556.92 919.5,-553.96 919.5,-553.96 919.5,-548.04 919.5,-548.04 919.5,-545.08 922.46,-542.12 925.42,-542.12 925.42,-542.12 969.33,-542.12 969.33,-542.12 972.29,-542.12 975.25,-545.08 975.25,-548.04 975.25,-548.04 975.25,-553.96 975.25,-553.96 975.25,-556.92 972.29,-559.88 969.33,-559.88"/>
<text text-anchor="start" x="927.5" y="-547.33" font-family="Helvetica,sans-Serif" font-size="9.00">Button.tsx</text>
</a>
</g>
</g>
<!-- src/components/uswds/modal/Modal.tsx&#45;&gt;src/components/uswds/Button.tsx -->
<g id="edge39" class="edge">
<title>src/components/uswds/modal/Modal.tsx&#45;&gt;src/components/uswds/Button.tsx</title>
<path fill="none" stroke="black" d="M585.23,-474.96C667.13,-474.96 901.38,-474.96 901.38,-474.96 901.38,-474.96 901.38,-546.56 901.38,-546.56 901.38,-546.56 912.81,-546.56 912.81,-546.56"/>
<polygon fill="black" stroke="black" points="917.81,-546.56 912.81,-548.81 916.53,-546.56 912.81,-546.56 912.81,-546.56 912.81,-546.56 916.53,-546.56 912.81,-544.31 917.81,-546.56"/>
</g>
<!-- src/hooks/UseComponent.ts -->
<g id="node34" class="node">
<title>src/hooks/UseComponent.ts</title>
<g id="a_node34"><a xlink:href="src/hooks/UseComponent.ts" xlink:title="UseComponent.ts">
<path fill="#ddfeff" stroke="black" d="M740.33,-311.88C740.33,-311.88 662.67,-311.88 662.67,-311.88 659.71,-311.88 656.75,-308.92 656.75,-305.96 656.75,-305.96 656.75,-300.04 656.75,-300.04 656.75,-297.08 659.71,-294.12 662.67,-294.12 662.67,-294.12 740.33,-294.12 740.33,-294.12 743.29,-294.12 746.25,-297.08 746.25,-300.04 746.25,-300.04 746.25,-305.96 746.25,-305.96 746.25,-308.92 743.29,-311.88 740.33,-311.88"/>
<text text-anchor="start" x="664.75" y="-299.32" font-family="Helvetica,sans-Serif" font-size="9.00">UseComponent.ts</text>
</a>
</g>
</g>
<!-- src/components/uswds/modal/Modal.tsx&#45;&gt;src/hooks/UseComponent.ts -->
<g id="edge37" class="edge">
<title>src/components/uswds/modal/Modal.tsx&#45;&gt;src/hooks/UseComponent.ts</title>
<path fill="none" stroke="black" d="M585.04,-467.58C604.24,-467.58 626.38,-467.58 626.38,-467.58 626.38,-467.58 626.38,-301 626.38,-301 626.38,-301 650.28,-301 650.28,-301"/>
<polygon fill="black" stroke="black" points="655.28,-301 650.28,-303.25 654,-301 650.28,-301 650.28,-301 650.28,-301 654,-301 650.28,-298.75 655.28,-301"/>
</g>
<!-- src/hooks/UseGlobalKeyDown.ts -->
<g id="node35" class="node">
<title>src/hooks/UseGlobalKeyDown.ts</title>
<g id="a_node35"><a xlink:href="src/hooks/UseGlobalKeyDown.ts" xlink:title="UseGlobalKeyDown.ts">
<path fill="#ddfeff" stroke="black" d="M749.71,-281.88C749.71,-281.88 653.29,-281.88 653.29,-281.88 650.33,-281.88 647.38,-278.92 647.38,-275.96 647.38,-275.96 647.38,-270.04 647.38,-270.04 647.38,-267.08 650.33,-264.12 653.29,-264.12 653.29,-264.12 749.71,-264.12 749.71,-264.12 752.67,-264.12 755.62,-267.08 755.62,-270.04 755.62,-270.04 755.62,-275.96 755.62,-275.96 755.62,-278.92 752.67,-281.88 749.71,-281.88"/>
<text text-anchor="start" x="655.38" y="-269.32" font-family="Helvetica,sans-Serif" font-size="9.00">UseGlobalKeyDown.ts</text>
</a>
</g>
</g>
<!-- src/components/uswds/modal/Modal.tsx&#45;&gt;src/hooks/UseGlobalKeyDown.ts -->
<g id="edge38" class="edge">
<title>src/components/uswds/modal/Modal.tsx&#45;&gt;src/hooks/UseGlobalKeyDown.ts</title>
<path fill="none" stroke="black" d="M585.36,-470.04C613.39,-470.04 652.38,-470.04 652.38,-470.04 652.38,-470.04 652.38,-288.46 652.38,-288.46"/>
<polygon fill="black" stroke="black" points="652.38,-283.46 654.63,-288.46 652.38,-284.74 652.38,-288.46 652.38,-288.46 652.38,-288.46 652.38,-284.74 650.13,-288.46 652.38,-283.46"/>
</g>
<!-- src/components/uswds/modal/SubmitCancelButtonGroup.tsx -->
<g id="node36" class="node">
<title>src/components/uswds/modal/SubmitCancelButtonGroup.tsx</title>
<g id="a_node36"><a xlink:href="src/components/uswds/modal/SubmitCancelButtonGroup.tsx" xlink:title="SubmitCancelButtonGroup.tsx">
<path fill="#bbfeff" stroke="black" d="M765.08,-500.88C765.08,-500.88 637.92,-500.88 637.92,-500.88 634.96,-500.88 632,-497.92 632,-494.96 632,-494.96 632,-489.04 632,-489.04 632,-486.08 634.96,-483.12 637.92,-483.12 637.92,-483.12 765.08,-483.12 765.08,-483.12 768.04,-483.12 771,-486.08 771,-489.04 771,-489.04 771,-494.96 771,-494.96 771,-497.92 768.04,-500.88 765.08,-500.88"/>
<text text-anchor="start" x="640" y="-488.32" font-family="Helvetica,sans-Serif" font-size="9.00">SubmitCancelButtonGroup.tsx</text>
</a>
</g>
</g>
<!-- src/components/uswds/modal/Modal.tsx&#45;&gt;src/components/uswds/modal/SubmitCancelButtonGroup.tsx -->
<g id="edge41" class="edge">
<title>src/components/uswds/modal/Modal.tsx&#45;&gt;src/components/uswds/modal/SubmitCancelButtonGroup.tsx</title>
<path fill="none" stroke="black" d="M585.01,-477.42C609.16,-477.42 640.38,-477.42 640.38,-477.42 640.38,-477.42 640.38,-477.94 640.38,-477.94"/>
<polygon fill="black" stroke="black" points="640.38,-481.46 638.13,-476.46 640.38,-480.18 640.38,-476.46 640.38,-476.46 640.38,-476.46 640.38,-480.18 642.63,-476.46 640.38,-481.46"/>
</g>
<!-- src/models/attorneys&#45;api.ts&#45;&gt;src/components/AssignAttorneyModal.tsx -->
<g id="edge57" class="edge">
<title>src/models/attorneys&#45;api.ts&#45;&gt;src/components/AssignAttorneyModal.tsx</title>
<path fill="none" stroke="black" d="M417.38,-140.09C417.38,-140.09 417.38,-347.5 417.38,-347.5"/>
<polygon fill="black" stroke="black" points="417.38,-352.5 415.13,-347.5 417.38,-351.22 417.38,-347.5 417.38,-347.5 417.38,-347.5 417.38,-351.22 419.63,-347.5 417.38,-352.5"/>
</g>
<!-- src/models/attorneys&#45;api.ts&#45;&gt;src/models/api.ts -->
<g id="edge58" class="edge">
<title>src/models/attorneys&#45;api.ts&#45;&gt;src/models/api.ts</title>
<path fill="none" stroke="black" d="M456.21,-128.04C456.21,-128.04 523.89,-128.04 523.89,-128.04"/>
<polygon fill="black" stroke="black" points="528.89,-128.04 523.89,-130.29 527.61,-128.04 523.89,-128.04 523.89,-128.04 523.89,-128.04 527.61,-128.04 523.89,-125.79 528.89,-128.04"/>
</g>
<!-- src/models/chapter15&#45;mock.api.cases.ts&#45;&gt;src/models/api.ts -->
<g id="edge60" class="edge">
<title>src/models/chapter15&#45;mock.api.cases.ts&#45;&gt;src/models/api.ts</title>
<path fill="none" stroke="black" d="M481.38,-110.24C481.38,-117.03 481.38,-125.08 481.38,-125.08 481.38,-125.08 523.72,-125.08 523.72,-125.08"/>
<polygon fill="black" stroke="black" points="528.72,-125.08 523.72,-127.33 527.44,-125.08 523.72,-125.08 523.72,-125.08 523.72,-125.08 527.44,-125.08 523.72,-122.83 528.72,-125.08"/>
</g>
<!-- src/models/chapter15&#45;mock.api.cases.ts&#45;&gt;src/type&#45;declarations/api.d.ts -->
<g id="edge59" class="edge">
<title>src/models/chapter15&#45;mock.api.cases.ts&#45;&gt;src/type&#45;declarations/api.d.ts</title>
<path fill="none" stroke="black" d="M482.97,-100.12C646.05,-100.12 1053.38,-100.12 1053.38,-100.12 1053.38,-100.12 1053.38,-195.71 1053.38,-195.71"/>
<polygon fill="black" stroke="black" points="1053.38,-200.71 1051.13,-195.71 1053.38,-199.43 1053.38,-195.71 1053.38,-195.71 1053.38,-195.71 1053.38,-199.43 1055.63,-195.71 1053.38,-200.71"/>
</g>
<!-- src/components/uswds/Alert.scss -->
<g id="node28" class="node">
<title>src/components/uswds/Alert.scss</title>
<g id="a_node28"><a xlink:href="src/components/uswds/Alert.scss" xlink:title="Alert.scss">
<path fill="#ffffcc" stroke="black" d="M860.08,-559.88C860.08,-559.88 816.92,-559.88 816.92,-559.88 813.96,-559.88 811,-556.92 811,-553.96 811,-553.96 811,-548.04 811,-548.04 811,-545.08 813.96,-542.12 816.92,-542.12 816.92,-542.12 860.08,-542.12 860.08,-542.12 863.04,-542.12 866,-545.08 866,-548.04 866,-548.04 866,-553.96 866,-553.96 866,-556.92 863.04,-559.88 860.08,-559.88"/>
<text text-anchor="start" x="819" y="-547.33" font-family="Helvetica,sans-Serif" font-size="9.00">Alert.scss</text>
</a>
</g>
</g>
<!-- src/components/uswds/Alert.tsx&#45;&gt;src/components/uswds/Alert.scss -->
<g id="edge33" class="edge">
<title>src/components/uswds/Alert.tsx&#45;&gt;src/components/uswds/Alert.scss</title>
<path fill="none" stroke="black" d="M728.89,-551C728.89,-551 804.46,-551 804.46,-551"/>
<polygon fill="black" stroke="black" points="809.46,-551 804.46,-553.25 808.18,-551 804.46,-551 804.46,-551 804.46,-551 808.18,-551 804.46,-548.75 809.46,-551"/>
</g>
<!-- src/components/uswds/modal/ToggleModalButton.tsx&#45;&gt;src/components/uswds/modal/modal&#45;refs.d.ts -->
<g id="edge47" class="edge">
<title>src/components/uswds/modal/ToggleModalButton.tsx&#45;&gt;src/components/uswds/modal/modal&#45;refs.d.ts</title>
<path fill="none" stroke="black" d="M893.43,-499C906.32,-499 916.38,-499 916.38,-499 916.38,-499 916.38,-489.53 916.38,-489.53"/>
<polygon fill="black" stroke="black" points="916.38,-484.53 918.63,-489.53 916.38,-485.81 916.38,-489.53 916.38,-489.53 916.38,-489.53 916.38,-485.81 914.13,-489.53 916.38,-484.53"/>
</g>
<!-- src/components/uswds/modal/ToggleModalButton.tsx&#45;&gt;src/components/uswds/Button.tsx -->
<g id="edge46" class="edge">
<title>src/components/uswds/modal/ToggleModalButton.tsx&#45;&gt;src/components/uswds/Button.tsx</title>
<path fill="none" stroke="black" d="M873.38,-508.06C873.38,-522.96 873.38,-551 873.38,-551 873.38,-551 913.18,-551 913.18,-551"/>
<polygon fill="black" stroke="black" points="918.18,-551 913.18,-553.25 916.9,-551 913.18,-551 913.18,-551 913.18,-551 916.9,-551 913.18,-548.75 918.18,-551"/>
</g>
<!-- src/components/uswds/modal/ToggleModalButton.tsx&#45;&gt;src/type&#45;declarations/basic.d.ts -->
<g id="edge45" class="edge">
<title>src/components/uswds/modal/ToggleModalButton.tsx&#45;&gt;src/type&#45;declarations/basic.d.ts</title>
<path fill="none" stroke="black" d="M839.38,-489.69C839.38,-444.04 839.38,-245.94 839.38,-245.94 839.38,-245.94 913.62,-245.94 913.62,-245.94"/>
<polygon fill="black" stroke="black" points="918.62,-245.94 913.62,-248.19 917.34,-245.94 913.62,-245.94 913.62,-245.94 913.62,-245.94 917.34,-245.94 913.62,-243.69 918.62,-245.94"/>
</g>
<!-- src/components/Login.tsx&#45;&gt;src/store/store.ts -->
<g id="edge31" class="edge">
<title>src/components/Login.tsx&#45;&gt;src/store/store.ts</title>
<path fill="none" stroke="black" d="M443.8,-579.44C459.98,-579.44 477.38,-579.44 477.38,-579.44 477.38,-579.44 477.38,-692.04 477.38,-692.04 477.38,-692.04 524.07,-692.04 524.07,-692.04"/>
<polygon fill="black" stroke="black" points="529.07,-692.04 524.07,-694.29 527.79,-692.04 524.07,-692.04 524.07,-692.04 524.07,-692.04 527.79,-692.04 524.07,-689.79 529.07,-692.04"/>
</g>
<!-- src/components/Login.tsx&#45;&gt;src/models/api.ts -->
<g id="edge29" class="edge">
<title>src/components/Login.tsx&#45;&gt;src/models/api.ts</title>
<path fill="none" stroke="black" d="M443.97,-568.12C465.67,-568.12 492.38,-568.12 492.38,-568.12 492.38,-568.12 492.38,-136.92 492.38,-136.92 492.38,-136.92 523.97,-136.92 523.97,-136.92"/>
<polygon fill="black" stroke="black" points="528.97,-136.92 523.97,-139.17 527.69,-136.92 523.97,-136.92 523.97,-136.92 523.97,-136.92 527.69,-136.92 523.97,-134.67 528.97,-136.92"/>
</g>
<!-- src/components/Login.scss -->
<g id="node26" class="node">
<title>src/components/Login.scss</title>
<g id="a_node26"><a xlink:href="src/components/Login.scss" xlink:title="Login.scss">
<path fill="#ffffcc" stroke="black" d="M581.21,-641.88C581.21,-641.88 533.54,-641.88 533.54,-641.88 530.58,-641.88 527.62,-638.92 527.62,-635.96 527.62,-635.96 527.62,-630.04 527.62,-630.04 527.62,-627.08 530.58,-624.12 533.54,-624.12 533.54,-624.12 581.21,-624.12 581.21,-624.12 584.17,-624.12 587.12,-627.08 587.12,-630.04 587.12,-630.04 587.12,-635.96 587.12,-635.96 587.12,-638.92 584.17,-641.88 581.21,-641.88"/>
<text text-anchor="start" x="535.62" y="-629.33" font-family="Helvetica,sans-Serif" font-size="9.00">Login.scss</text>
</a>
</g>
</g>
<!-- src/components/Login.tsx&#45;&gt;src/components/Login.scss -->
<g id="edge32" class="edge">
<title>src/components/Login.tsx&#45;&gt;src/components/Login.scss</title>
<path fill="none" stroke="black" d="M444.1,-577C485.06,-577 557.38,-577 557.38,-577 557.38,-577 557.38,-617.53 557.38,-617.53"/>
<polygon fill="black" stroke="black" points="557.38,-622.53 555.13,-617.53 557.38,-621.25 557.38,-617.53 557.38,-617.53 557.38,-617.53 557.38,-621.25 559.63,-617.53 557.38,-622.53"/>
</g>
<!-- src/components/Login.tsx&#45;&gt;src/store/features/UserSlice.ts -->
<g id="edge30" class="edge">
<title>src/components/Login.tsx&#45;&gt;src/store/features/UserSlice.ts</title>
<path fill="none" stroke="black" d="M444.02,-574.56C515.54,-574.56 702.38,-574.56 702.38,-574.56 702.38,-574.56 702.38,-687.54 702.38,-687.54"/>
<polygon fill="black" stroke="black" points="702.38,-692.54 700.13,-687.54 702.38,-691.26 702.38,-687.54 702.38,-687.54 702.38,-687.54 702.38,-691.26 704.63,-687.54 702.38,-692.54"/>
</g>
<!-- src/components/uswds/AlertExamples.tsx -->
<g id="node29" class="node">
<title>src/components/uswds/AlertExamples.tsx</title>
<g id="a_node29"><a xlink:href="src/components/uswds/AlertExamples.tsx" xlink:title="AlertExamples.tsx">
<path fill="#bbfeff" stroke="black" d="M595.83,-559.88C595.83,-559.88 518.92,-559.88 518.92,-559.88 515.96,-559.88 513,-556.92 513,-553.96 513,-553.96 513,-548.04 513,-548.04 513,-545.08 515.96,-542.12 518.92,-542.12 518.92,-542.12 595.83,-542.12 595.83,-542.12 598.79,-542.12 601.75,-545.08 601.75,-548.04 601.75,-548.04 601.75,-553.96 601.75,-553.96 601.75,-556.92 598.79,-559.88 595.83,-559.88"/>
<text text-anchor="start" x="521" y="-547.33" font-family="Helvetica,sans-Serif" font-size="9.00">AlertExamples.tsx</text>
</a>
</g>
</g>
<!-- src/components/uswds/AlertExamples.tsx&#45;&gt;src/components/uswds/Alert.tsx -->
<g id="edge34" class="edge">
<title>src/components/uswds/AlertExamples.tsx&#45;&gt;src/components/uswds/Alert.tsx</title>
<path fill="none" stroke="black" d="M602.19,-551C602.19,-551 668.13,-551 668.13,-551"/>
<polygon fill="black" stroke="black" points="673.13,-551 668.13,-553.25 671.85,-551 668.13,-551 668.13,-551 668.13,-551 671.85,-551 668.13,-548.75 673.13,-551"/>
</g>
<!-- src/components/uswds/ButtonExamples.tsx -->
<g id="node31" class="node">
<title>src/components/uswds/ButtonExamples.tsx</title>
<g id="a_node31"><a xlink:href="src/components/uswds/ButtonExamples.tsx" xlink:title="ButtonExamples.tsx">
<path fill="#bbfeff" stroke="black" d="M880.71,-589.88C880.71,-589.88 796.29,-589.88 796.29,-589.88 793.33,-589.88 790.38,-586.92 790.38,-583.96 790.38,-583.96 790.38,-578.04 790.38,-578.04 790.38,-575.08 793.33,-572.12 796.29,-572.12 796.29,-572.12 880.71,-572.12 880.71,-572.12 883.67,-572.12 886.62,-575.08 886.62,-578.04 886.62,-578.04 886.62,-583.96 886.62,-583.96 886.62,-586.92 883.67,-589.88 880.71,-589.88"/>
<text text-anchor="start" x="798.38" y="-577.33" font-family="Helvetica,sans-Serif" font-size="9.00">ButtonExamples.tsx</text>
</a>
</g>
</g>
<!-- src/components/uswds/ButtonExamples.tsx&#45;&gt;src/components/uswds/Button.tsx -->
<g id="edge35" class="edge">
<title>src/components/uswds/ButtonExamples.tsx&#45;&gt;src/components/uswds/Button.tsx</title>
<path fill="none" stroke="black" d="M880.38,-571.77C880.38,-564.45 880.38,-555.44 880.38,-555.44 880.38,-555.44 913.13,-555.44 913.13,-555.44"/>
<polygon fill="black" stroke="black" points="918.13,-555.44 913.13,-557.69 916.85,-555.44 913.13,-555.44 913.13,-555.44 913.13,-555.44 916.85,-555.44 913.13,-553.19 918.13,-555.44"/>
</g>
<!-- src/components/uswds/OpenModalButton.tsx -->
<g id="node33" class="node">
<title>src/components/uswds/OpenModalButton.tsx</title>
<g id="a_node33"><a xlink:href="src/components/uswds/OpenModalButton.tsx" xlink:title="no&#45;orphans">
<path fill="#ccffcc" stroke="orange" d="M603.33,-415.88C603.33,-415.88 511.42,-415.88 511.42,-415.88 508.46,-415.88 505.5,-412.92 505.5,-409.96 505.5,-409.96 505.5,-404.04 505.5,-404.04 505.5,-401.08 508.46,-398.12 511.42,-398.12 511.42,-398.12 603.33,-398.12 603.33,-398.12 606.29,-398.12 609.25,-401.08 609.25,-404.04 609.25,-404.04 609.25,-409.96 609.25,-409.96 609.25,-412.92 606.29,-415.88 603.33,-415.88"/>
<text text-anchor="start" x="513.5" y="-403.32" font-family="Helvetica,sans-Serif" font-size="9.00" fill="orange">OpenModalButton.tsx</text>
</a>
</g>
</g>
<!-- src/hooks/UseGlobalKeyDown.ts&#45;&gt;src/type&#45;declarations/basic.d.ts -->
<g id="edge49" class="edge">
<title>src/hooks/UseGlobalKeyDown.ts&#45;&gt;src/type&#45;declarations/basic.d.ts</title>
<path fill="none" stroke="black" d="M753.38,-263.87C753.38,-254.72 753.38,-242 753.38,-242 753.38,-242 913.77,-242 913.77,-242"/>
<polygon fill="black" stroke="black" points="918.77,-242 913.77,-244.25 917.49,-242 913.77,-242 913.77,-242 913.77,-242 917.49,-242 913.77,-239.75 918.77,-242"/>
</g>
<!-- src/components/uswds/modal/SubmitCancelButtonGroup.tsx&#45;&gt;src/components/uswds/modal/modal&#45;refs.d.ts -->
<g id="edge43" class="edge">
<title>src/components/uswds/modal/SubmitCancelButtonGroup.tsx&#45;&gt;src/components/uswds/modal/modal&#45;refs.d.ts</title>
<path fill="none" stroke="black" d="M771.46,-485.46C833.18,-485.46 913.38,-485.46 913.38,-485.46 913.38,-485.46 913.38,-485.24 913.38,-485.24"/>
<polygon fill="black" stroke="black" points="913.38,-484.47 915.63,-489.47 913.38,-485.75 913.38,-489.47 913.38,-489.47 913.38,-489.47 913.38,-485.75 911.13,-489.47 913.38,-484.47"/>
</g>
<!-- src/components/uswds/modal/SubmitCancelButtonGroup.tsx&#45;&gt;src/components/uswds/modal/ToggleModalButton.tsx -->
<g id="edge44" class="edge">
<title>src/components/uswds/modal/SubmitCancelButtonGroup.tsx&#45;&gt;src/components/uswds/modal/ToggleModalButton.tsx</title>
<path fill="none" stroke="black" d="M771.2,-495.5C771.2,-495.5 777.59,-495.5 777.59,-495.5"/>
<polygon fill="black" stroke="black" points="782.59,-495.5 777.59,-497.75 781.31,-495.5 777.59,-495.5 777.59,-495.5 777.59,-495.5 781.31,-495.5 777.59,-493.25 782.59,-495.5"/>
</g>
<!-- src/components/uswds/modal/SubmitCancelButtonGroup.tsx&#45;&gt;src/components/uswds/Button.tsx -->
<g id="edge42" class="edge">
<title>src/components/uswds/modal/SubmitCancelButtonGroup.tsx&#45;&gt;src/components/uswds/Button.tsx</title>
<path fill="none" stroke="black" d="M771.3,-487.79C843.99,-487.79 947.38,-487.79 947.38,-487.79 947.38,-487.79 947.38,-535.45 947.38,-535.45"/>
<polygon fill="black" stroke="black" points="947.38,-540.45 945.13,-535.45 947.38,-539.17 947.38,-535.45 947.38,-535.45 947.38,-535.45 947.38,-539.17 949.63,-535.46 947.38,-540.45"/>
</g>
<!-- src/components/utils/mock.update&#45;cases.ts -->
<g id="node39" class="node">
<title>src/components/utils/mock.update&#45;cases.ts</title>
<g id="a_node39"><a xlink:href="src/components/utils/mock.update-cases.ts" xlink:title="mock.update&#45;cases.ts">
<path fill="#ddfeff" stroke="black" d="M312.08,-409.88C312.08,-409.88 219.42,-409.88 219.42,-409.88 216.46,-409.88 213.5,-406.92 213.5,-403.96 213.5,-403.96 213.5,-398.04 213.5,-398.04 213.5,-395.08 216.46,-392.12 219.42,-392.12 219.42,-392.12 312.08,-392.12 312.08,-392.12 315.04,-392.12 318,-395.08 318,-398.04 318,-398.04 318,-403.96 318,-403.96 318,-406.92 315.04,-409.88 312.08,-409.88"/>
<text text-anchor="start" x="221.5" y="-397.32" font-family="Helvetica,sans-Serif" font-size="9.00">mock.update&#45;cases.ts</text>
</a>
</g>
</g>
<!-- src/components/utils/mock.update&#45;cases.ts&#45;&gt;src/components/AssignAttorneyModal.tsx -->
<g id="edge48" class="edge">
<title>src/components/utils/mock.update&#45;cases.ts&#45;&gt;src/components/AssignAttorneyModal.tsx</title>
<path fill="none" stroke="black" d="M310.38,-391.64C310.38,-381.08 310.38,-365.38 310.38,-365.38 310.38,-365.38 351.69,-365.38 351.69,-365.38"/>
<polygon fill="black" stroke="black" points="356.69,-365.38 351.69,-367.63 355.41,-365.38 351.69,-365.38 351.69,-365.38 351.69,-365.38 355.41,-365.38 351.69,-363.13 356.69,-365.38"/>
</g>
<!-- src/hooks/UseOutsideClick.ts -->
<g id="node41" class="node">
<title>src/hooks/UseOutsideClick.ts</title>
<g id="a_node41"><a xlink:href="src/hooks/UseOutsideClick.ts" xlink:title="no&#45;orphans">
<path fill="#ccffcc" stroke="orange" d="M742.21,-251.88C742.21,-251.88 660.79,-251.88 660.79,-251.88 657.83,-251.88 654.88,-248.92 654.88,-245.96 654.88,-245.96 654.88,-240.04 654.88,-240.04 654.88,-237.08 657.83,-234.12 660.79,-234.12 660.79,-234.12 742.21,-234.12 742.21,-234.12 745.17,-234.12 748.12,-237.08 748.12,-240.04 748.12,-240.04 748.12,-245.96 748.12,-245.96 748.12,-248.92 745.17,-251.88 742.21,-251.88"/>
<text text-anchor="start" x="662.88" y="-239.32" font-family="Helvetica,sans-Serif" font-size="9.00" fill="orange">UseOutsideClick.ts</text>
</a>
</g>
</g>
<!-- src/index.css -->
<g id="node42" class="node">
<title>src/index.css</title>
<g id="a_node42"><a xlink:href="src/index.css" xlink:title="index.css">
<path fill="#ffffcc" stroke="black" d="M160.08,-551.88C160.08,-551.88 117.67,-551.88 117.67,-551.88 114.71,-551.88 111.75,-548.92 111.75,-545.96 111.75,-545.96 111.75,-540.04 111.75,-540.04 111.75,-537.08 114.71,-534.12 117.67,-534.12 117.67,-534.12 160.08,-534.12 160.08,-534.12 163.04,-534.12 166,-537.08 166,-540.04 166,-540.04 166,-545.96 166,-545.96 166,-548.92 163.04,-551.88 160.08,-551.88"/>
<text text-anchor="start" x="119.75" y="-539.33" font-family="Helvetica,sans-Serif" font-size="9.00">index.css</text>
</a>
</g>
</g>
<!-- src/index.tsx -->
<g id="node43" class="node">
<title>src/index.tsx</title>
<g id="a_node43"><a xlink:href="src/index.tsx" xlink:title="index.tsx">
<path fill="#bbfeff" stroke="black" d="M69.46,-551.88C69.46,-551.88 27.29,-551.88 27.29,-551.88 24.33,-551.88 21.38,-548.92 21.38,-545.96 21.38,-545.96 21.38,-540.04 21.38,-540.04 21.38,-537.08 24.33,-534.12 27.29,-534.12 27.29,-534.12 69.46,-534.12 69.46,-534.12 72.42,-534.12 75.38,-537.08 75.38,-540.04 75.38,-540.04 75.38,-545.96 75.38,-545.96 75.38,-548.92 72.42,-551.88 69.46,-551.88"/>
<text text-anchor="start" x="30.38" y="-539.33" font-family="Helvetica,sans-Serif" font-size="9.00">index.tsx</text>
</a>
</g>
</g>
<!-- src/index.tsx&#45;&gt;src/App.tsx -->
<g id="edge50" class="edge">
<title>src/index.tsx&#45;&gt;src/App.tsx</title>
<path fill="none" stroke="black" d="M48.38,-533.84C48.38,-525.01 48.38,-513 48.38,-513 48.38,-513 105.5,-513 105.5,-513"/>
<polygon fill="black" stroke="black" points="110.5,-513 105.5,-515.25 109.22,-513 105.5,-513 105.5,-513 105.5,-513 109.22,-513 105.5,-510.75 110.5,-513"/>
</g>
<!-- src/index.tsx&#45;&gt;src/index.css -->
<g id="edge51" class="edge">
<title>src/index.tsx&#45;&gt;src/index.css</title>
<path fill="none" stroke="black" d="M75.53,-540.04C75.53,-540.04 105.21,-540.04 105.21,-540.04"/>
<polygon fill="black" stroke="black" points="110.21,-540.04 105.21,-542.29 108.93,-540.04 105.21,-540.04 105.21,-540.04 105.21,-540.04 108.93,-540.04 105.21,-537.79 110.21,-540.04"/>
</g>
<!-- src/reportWebVitals.ts -->
<g id="node44" class="node">
<title>src/reportWebVitals.ts</title>
<g id="a_node44"><a xlink:href="src/reportWebVitals.ts" xlink:title="reportWebVitals.ts">
<path fill="#ddfeff" stroke="black" d="M178.08,-581.88C178.08,-581.88 99.67,-581.88 99.67,-581.88 96.71,-581.88 93.75,-578.92 93.75,-575.96 93.75,-575.96 93.75,-570.04 93.75,-570.04 93.75,-567.08 96.71,-564.12 99.67,-564.12 99.67,-564.12 178.08,-564.12 178.08,-564.12 181.04,-564.12 184,-567.08 184,-570.04 184,-570.04 184,-575.96 184,-575.96 184,-578.92 181.04,-581.88 178.08,-581.88"/>
<text text-anchor="start" x="101.75" y="-569.33" font-family="Helvetica,sans-Serif" font-size="9.00">reportWebVitals.ts</text>
</a>
</g>
</g>
<!-- src/index.tsx&#45;&gt;src/reportWebVitals.ts -->
<g id="edge52" class="edge">
<title>src/index.tsx&#45;&gt;src/reportWebVitals.ts</title>
<path fill="none" stroke="black" d="M75.88,-545.96C89.62,-545.96 103.38,-545.96 103.38,-545.96 103.38,-545.96 103.38,-557.63 103.38,-557.63"/>
<polygon fill="black" stroke="black" points="103.38,-562.63 101.13,-557.63 103.38,-561.34 103.38,-557.63 103.38,-557.63 103.38,-557.63 103.38,-561.34 105.63,-557.63 103.38,-562.63"/>
</g>
<!-- src/vite&#45;env.d.ts -->
<g id="node45" class="node">
<title>src/vite&#45;env.d.ts</title>
<g id="a_node45"><a xlink:href="src/vite-env.d.ts" xlink:title="vite&#45;env.d.ts">
<path fill="#ddfeff" stroke="black" d="M74.83,-93.88C74.83,-93.88 21.92,-93.88 21.92,-93.88 18.96,-93.88 16,-90.92 16,-87.96 16,-87.96 16,-82.04 16,-82.04 16,-79.08 18.96,-76.12 21.92,-76.12 21.92,-76.12 74.83,-76.12 74.83,-76.12 77.79,-76.12 80.75,-79.08 80.75,-82.04 80.75,-82.04 80.75,-87.96 80.75,-87.96 80.75,-90.92 77.79,-93.88 74.83,-93.88"/>
<text text-anchor="start" x="24" y="-81.33" font-family="Helvetica,sans-Serif" font-size="9.00">vite&#45;env.d.ts</text>
</a>
</g>
</g>
<!-- vite/client -->
<g id="node46" class="node">
<title>vite/client</title>
<g id="a_node46"><a xlink:title="client">
<path fill="#ffffcc" stroke="red" d="M159.96,-33.88C159.96,-33.88 117.79,-33.88 117.79,-33.88 114.83,-33.88 111.88,-30.92 111.88,-27.96 111.88,-27.96 111.88,-22.04 111.88,-22.04 111.88,-19.08 114.83,-16.12 117.79,-16.12 117.79,-16.12 159.96,-16.12 159.96,-16.12 162.92,-16.12 165.88,-19.08 165.88,-22.04 165.88,-22.04 165.88,-27.96 165.88,-27.96 165.88,-30.92 162.92,-33.88 159.96,-33.88"/>
<text text-anchor="start" x="128" y="-21.32" font-family="Helvetica,sans-Serif" font-size="9.00" fill="red">client</text>
</a>
</g>
</g>
<!-- src/vite&#45;env.d.ts&#45;&gt;vite/client -->
<g id="edge63" class="edge">
<title>src/vite&#45;env.d.ts&#45;&gt;vite/client</title>
<g id="a_edge63"><a xlink:title="not&#45;to&#45;unresolvable">
<path fill="none" stroke="red" d="M81.12,-84.12C110.28,-84.12 148.38,-84.12 148.38,-84.12 148.38,-84.12 148.38,-40.46 148.38,-40.46"/>
<polygon fill="red" stroke="red" points="148.38,-35.46 150.63,-40.46 148.38,-36.74 148.38,-40.46 148.38,-40.46 148.38,-40.46 148.38,-36.74 146.13,-40.46 148.38,-35.46"/>
</a>
</g>
<text text-anchor="middle" x="176.33" y="-75.58" font-family="Helvetica,sans-Serif" font-size="9.00" fill="red">not&#45;to&#45;unresolvable</text>
</g>
</g>
</svg>
