<?xml version="1.0" encoding="UTF-8" standalone="no"?>
<!DOCTYPE svg PUBLIC "-//W3C//DTD SVG 1.1//EN"
 "http://www.w3.org/Graphics/SVG/1.1/DTD/svg11.dtd">
<!-- Generated by graphviz version 2.43.0 (0)
 -->
<!-- Title: dependency&#45;cruiser output Pages: 1 -->
<svg width="641pt" height="458pt"
 viewBox="0.00 0.00 640.50 458.00" xmlns="http://www.w3.org/2000/svg" xmlns:xlink="http://www.w3.org/1999/xlink">
<g id="graph0" class="graph" transform="scale(1 1) rotate(0) translate(4 454)">
<title>dependency&#45;cruiser output</title>
<polygon fill="white" stroke="transparent" points="-4,4 -4,-454 636.5,-454 636.5,4 -4,4"/>
<g id="clust1" class="cluster">
<title>cluster_node_modules</title>
<path fill="#ffffff" stroke="black" stroke-width="2" d="M237.5,-8C237.5,-8 303.5,-8 303.5,-8 309.5,-8 315.5,-14 315.5,-20 315.5,-20 315.5,-82 315.5,-82 315.5,-88 309.5,-94 303.5,-94 303.5,-94 237.5,-94 237.5,-94 231.5,-94 225.5,-88 225.5,-82 225.5,-82 225.5,-20 225.5,-20 225.5,-14 231.5,-8 237.5,-8"/>
<text text-anchor="middle" x="270.5" y="-82.8" font-family="Helvetica,sans-Serif" font-weight="bold" font-size="9.00">node_modules</text>
</g>
<g id="clust2" class="cluster">
<title>cluster_node_modules/@faker&#45;js</title>
<path fill="#ffffff" stroke="black" stroke-width="2" d="M247.5,-16C247.5,-16 293.5,-16 293.5,-16 299.5,-16 305.5,-22 305.5,-28 305.5,-28 305.5,-56 305.5,-56 305.5,-62 299.5,-68 293.5,-68 293.5,-68 247.5,-68 247.5,-68 241.5,-68 235.5,-62 235.5,-56 235.5,-56 235.5,-28 235.5,-28 235.5,-22 241.5,-16 247.5,-16"/>
<text text-anchor="middle" x="270.5" y="-56.8" font-family="Helvetica,sans-Serif" font-weight="bold" font-size="9.00">@faker&#45;js</text>
</g>
<g id="clust3" class="cluster">
<title>cluster_src</title>
<path fill="#ffffff" stroke="black" stroke-width="2" d="M20,-102C20,-102 612.5,-102 612.5,-102 618.5,-102 624.5,-108 624.5,-114 624.5,-114 624.5,-430 624.5,-430 624.5,-436 618.5,-442 612.5,-442 612.5,-442 20,-442 20,-442 14,-442 8,-436 8,-430 8,-430 8,-114 8,-114 8,-108 14,-102 20,-102"/>
<text text-anchor="middle" x="316.25" y="-430.8" font-family="Helvetica,sans-Serif" font-weight="bold" font-size="9.00">src</text>
</g>
<g id="clust4" class="cluster">
<title>cluster_src/cams</title>
<path fill="#ffffff" stroke="black" stroke-width="2" d="M31,-136C31,-136 604.5,-136 604.5,-136 610.5,-136 616.5,-142 616.5,-148 616.5,-148 616.5,-318 616.5,-318 616.5,-324 610.5,-330 604.5,-330 604.5,-330 31,-330 31,-330 25,-330 19,-324 19,-318 19,-318 19,-148 19,-148 19,-142 25,-136 31,-136"/>
<text text-anchor="middle" x="317.75" y="-318.8" font-family="Helvetica,sans-Serif" font-weight="bold" font-size="9.00">cams</text>
</g>
<g id="clust5" class="cluster">
<title>cluster_src/cams/test&#45;utilities</title>
<path fill="#ffffff" stroke="black" stroke-width="2" d="M135,-222C135,-222 315.5,-222 315.5,-222 321.5,-222 327.5,-228 327.5,-234 327.5,-234 327.5,-292 327.5,-292 327.5,-298 321.5,-304 315.5,-304 315.5,-304 135,-304 135,-304 129,-304 123,-298 123,-292 123,-292 123,-234 123,-234 123,-228 129,-222 135,-222"/>
<text text-anchor="middle" x="225.25" y="-292.8" font-family="Helvetica,sans-Serif" font-weight="bold" font-size="9.00">test&#45;utilities</text>
</g>
<!-- node_modules/@faker&#45;js/faker -->
<g id="node1" class="node">
<title>node_modules/@faker&#45;js/faker</title>
<g id="a_node1"><a xlink:href="https://www.npmjs.com/package/@faker-js/faker" xlink:title="faker">
<polygon fill="#c40b0a" fill-opacity="0.101961" stroke="black" points="297.5,-42 245.5,-42 243.5,-40 243.5,-24 295.5,-24 297.5,-26 297.5,-42"/>
<polyline fill="none" stroke="black" points="295.5,-40 243.5,-40 "/>
<polyline fill="none" stroke="black" points="295.5,-40 295.5,-24 "/>
<polyline fill="none" stroke="black" points="295.5,-40 297.5,-42 "/>
<text text-anchor="start" x="259" y="-30.8" font-family="Helvetica,sans-Serif" font-size="9.00" fill="#c40b0a">faker</text>
</a>
</g>
</g>
<!-- src/cams/assignments.ts -->
<g id="node2" class="node">
<title>src/cams/assignments.ts</title>
<g id="a_node2"><a xlink:href="src/cams/assignments.ts" xlink:title="assignments.ts">
<path fill="#ddfeff" stroke="black" d="M424,-162C424,-162 351,-162 351,-162 348,-162 345,-159 345,-156 345,-156 345,-150 345,-150 345,-147 348,-144 351,-144 351,-144 424,-144 424,-144 427,-144 430,-147 430,-150 430,-150 430,-156 430,-156 430,-159 427,-162 424,-162"/>
<text text-anchor="start" x="353" y="-150.8" font-family="Helvetica,sans-Serif" font-size="9.00">assignments.ts</text>
</a>
</g>
</g>
<!-- src/cams/cases.ts -->
<g id="node3" class="node">
<title>src/cams/cases.ts</title>
<g id="a_node3"><a xlink:href="src/cams/cases.ts" xlink:title="cases.ts">
<path fill="#ddfeff" stroke="black" d="M515.5,-209C515.5,-209 473.5,-209 473.5,-209 470.5,-209 467.5,-206 467.5,-203 467.5,-203 467.5,-197 467.5,-197 467.5,-194 470.5,-191 473.5,-191 473.5,-191 515.5,-191 515.5,-191 518.5,-191 521.5,-194 521.5,-197 521.5,-197 521.5,-203 521.5,-203 521.5,-206 518.5,-209 515.5,-209"/>
<text text-anchor="start" x="476" y="-197.8" font-family="Helvetica,sans-Serif" font-size="9.00">cases.ts</text>
</a>
</g>
</g>
<!-- src/cams/courts.ts -->
<g id="node4" class="node">
<title>src/cams/courts.ts</title>
<g id="a_node4"><a xlink:href="src/cams/courts.ts" xlink:title="courts.ts">
<path fill="#ddfeff" stroke="black" d="M601,-255C601,-255 557,-255 557,-255 554,-255 551,-252 551,-249 551,-249 551,-243 551,-243 551,-240 554,-237 557,-237 557,-237 601,-237 601,-237 604,-237 607,-240 607,-243 607,-243 607,-249 607,-249 607,-252 604,-255 601,-255"/>
<text text-anchor="start" x="559" y="-243.8" font-family="Helvetica,sans-Serif" font-size="9.00">courts.ts</text>
</a>
</g>
</g>
<!-- src/cams/cases.ts&#45;&gt;src/cams/courts.ts -->
<g id="edge1" class="edge">
<title>src/cams/cases.ts&#45;&gt;src/cams/courts.ts</title>
<path fill="none" stroke="black" d="M503.5,-209.01C503.5,-221.49 503.5,-242.5 503.5,-242.5 503.5,-242.5 545.89,-242.5 545.89,-242.5"/>
<polygon fill="black" stroke="black" points="550.89,-242.5 545.89,-244.75 548.39,-242.5 545.89,-242.5 545.89,-242.5 545.89,-242.5 548.39,-242.5 545.89,-240.25 550.89,-242.5 550.89,-242.5"/>
</g>
<!-- src/cams/events.ts -->
<g id="node5" class="node">
<title>src/cams/events.ts</title>
<g id="a_node5"><a xlink:href="src/cams/events.ts" xlink:title="events.ts">
<path fill="#ddfeff" stroke="black" d="M602,-213C602,-213 556,-213 556,-213 553,-213 550,-210 550,-207 550,-207 550,-201 550,-201 550,-198 553,-195 556,-195 556,-195 602,-195 602,-195 605,-195 608,-198 608,-201 608,-201 608,-207 608,-207 608,-210 605,-213 602,-213"/>
<text text-anchor="start" x="558" y="-201.8" font-family="Helvetica,sans-Serif" font-size="9.00">events.ts</text>
</a>
</g>
</g>
<!-- src/cams/cases.ts&#45;&gt;src/cams/events.ts -->
<g id="edge2" class="edge">
<title>src/cams/cases.ts&#45;&gt;src/cams/events.ts</title>
<path fill="none" stroke="black" d="M521.7,-202C521.7,-202 544.81,-202 544.81,-202"/>
<polygon fill="black" stroke="black" points="549.81,-202 544.81,-204.25 547.31,-202 544.81,-202 544.81,-202 544.81,-202 547.31,-202 544.81,-199.75 549.81,-202 549.81,-202"/>
</g>
<!-- src/cams/parties.ts -->
<g id="node6" class="node">
<title>src/cams/parties.ts</title>
<g id="a_node6"><a xlink:href="src/cams/parties.ts" xlink:title="parties.ts">
<path fill="#ddfeff" stroke="black" d="M602.5,-183C602.5,-183 555.5,-183 555.5,-183 552.5,-183 549.5,-180 549.5,-177 549.5,-177 549.5,-171 549.5,-171 549.5,-168 552.5,-165 555.5,-165 555.5,-165 602.5,-165 602.5,-165 605.5,-165 608.5,-168 608.5,-171 608.5,-171 608.5,-177 608.5,-177 608.5,-180 605.5,-183 602.5,-183"/>
<text text-anchor="start" x="557.5" y="-171.8" font-family="Helvetica,sans-Serif" font-size="9.00">parties.ts</text>
</a>
</g>
</g>
<!-- src/cams/cases.ts&#45;&gt;src/cams/parties.ts -->
<g id="edge3" class="edge">
<title>src/cams/cases.ts&#45;&gt;src/cams/parties.ts</title>
<path fill="none" stroke="black" d="M503.5,-190.55C503.5,-185.44 503.5,-180.17 503.5,-180.17 503.5,-180.17 544.16,-180.17 544.16,-180.17"/>
<polygon fill="black" stroke="black" points="549.16,-180.17 544.16,-182.42 546.66,-180.17 544.16,-180.17 544.16,-180.17 544.16,-180.17 546.66,-180.17 544.16,-177.92 549.16,-180.17 549.16,-180.17"/>
</g>
<!-- src/cams/history.ts -->
<g id="node7" class="node">
<title>src/cams/history.ts</title>
<g id="a_node7"><a xlink:href="src/cams/history.ts" xlink:title="history.ts">
<path fill="#ddfeff" stroke="black" d="M293,-162C293,-162 248,-162 248,-162 245,-162 242,-159 242,-156 242,-156 242,-150 242,-150 242,-147 245,-144 248,-144 248,-144 293,-144 293,-144 296,-144 299,-147 299,-150 299,-150 299,-156 299,-156 299,-159 296,-162 293,-162"/>
<text text-anchor="start" x="250" y="-150.8" font-family="Helvetica,sans-Serif" font-size="9.00">history.ts</text>
</a>
</g>
</g>
<!-- src/cams/history.ts&#45;&gt;src/cams/assignments.ts -->
<g id="edge4" class="edge">
<title>src/cams/history.ts&#45;&gt;src/cams/assignments.ts</title>
<path fill="none" stroke="black" d="M299.12,-153C299.12,-153 339.57,-153 339.57,-153"/>
<polygon fill="black" stroke="black" points="344.57,-153 339.57,-155.25 342.07,-153 339.57,-153 339.57,-153 339.57,-153 342.07,-153 339.57,-150.75 344.57,-153 344.57,-153"/>
</g>
<!-- src/cams/history.ts&#45;&gt;src/cams/cases.ts -->
<g id="edge5" class="edge">
<title>src/cams/history.ts&#45;&gt;src/cams/cases.ts</title>
<path fill="none" stroke="black" d="M285.5,-162.03C285.5,-165.58 285.5,-168.83 285.5,-168.83 285.5,-168.83 485.5,-168.83 485.5,-168.83 485.5,-168.83 485.5,-185.82 485.5,-185.82"/>
<polygon fill="black" stroke="black" points="485.5,-190.82 483.25,-185.82 485.5,-188.32 485.5,-185.82 485.5,-185.82 485.5,-185.82 485.5,-188.32 487.75,-185.82 485.5,-190.82 485.5,-190.82"/>
</g>
<!-- src/cams/orders.ts -->
<g id="node8" class="node">
<title>src/cams/orders.ts</title>
<g id="a_node8"><a xlink:href="src/cams/orders.ts" xlink:title="orders.ts">
<path fill="#ddfeff" stroke="black" d="M409.5,-206C409.5,-206 365.5,-206 365.5,-206 362.5,-206 359.5,-203 359.5,-200 359.5,-200 359.5,-194 359.5,-194 359.5,-191 362.5,-188 365.5,-188 365.5,-188 409.5,-188 409.5,-188 412.5,-188 415.5,-191 415.5,-194 415.5,-194 415.5,-200 415.5,-200 415.5,-203 412.5,-206 409.5,-206"/>
<text text-anchor="start" x="367.5" y="-194.8" font-family="Helvetica,sans-Serif" font-size="9.00">orders.ts</text>
</a>
</g>
</g>
<!-- src/cams/history.ts&#45;&gt;src/cams/orders.ts -->
<g id="edge6" class="edge">
<title>src/cams/history.ts&#45;&gt;src/cams/orders.ts</title>
<path fill="none" stroke="black" d="M270.5,-162.16C270.5,-173.83 270.5,-192.5 270.5,-192.5 270.5,-192.5 354.48,-192.5 354.48,-192.5"/>
<polygon fill="black" stroke="black" points="359.48,-192.5 354.48,-194.75 356.98,-192.5 354.48,-192.5 354.48,-192.5 354.48,-192.5 356.98,-192.5 354.48,-190.25 359.48,-192.5 359.48,-192.5"/>
</g>
<!-- src/cams/orders.ts&#45;&gt;src/cams/cases.ts -->
<g id="edge10" class="edge">
<title>src/cams/orders.ts&#45;&gt;src/cams/cases.ts</title>
<path fill="none" stroke="black" d="M415.61,-198.5C415.61,-198.5 462.31,-198.5 462.31,-198.5"/>
<polygon fill="black" stroke="black" points="467.31,-198.5 462.31,-200.75 464.81,-198.5 462.31,-198.5 462.31,-198.5 462.31,-198.5 464.81,-198.5 462.31,-196.25 467.31,-198.5 467.31,-198.5"/>
</g>
<!-- src/cams/orders.test.ts -->
<g id="node9" class="node">
<title>src/cams/orders.test.ts</title>
<g id="a_node9"><a xlink:href="src/cams/orders.test.ts" xlink:title="orders.test.ts">
<path fill="#ddfeff" stroke="black" d="M98,-184C98,-184 33,-184 33,-184 30,-184 27,-181 27,-178 27,-178 27,-172 27,-172 27,-169 30,-166 33,-166 33,-166 98,-166 98,-166 101,-166 104,-169 104,-172 104,-172 104,-178 104,-178 104,-181 101,-184 98,-184"/>
<text text-anchor="start" x="35" y="-172.8" font-family="Helvetica,sans-Serif" font-size="9.00">orders.test.ts</text>
</a>
</g>
</g>
<!-- src/cams/orders.test.ts&#45;&gt;src/cams/history.ts -->
<g id="edge7" class="edge">
<title>src/cams/orders.test.ts&#45;&gt;src/cams/history.ts</title>
<path fill="none" stroke="black" d="M104.15,-171.67C159.96,-171.67 256.5,-171.67 256.5,-171.67 256.5,-171.67 256.5,-167.33 256.5,-167.33"/>
<polygon fill="black" stroke="black" points="256.5,-162.33 258.75,-167.33 256.5,-164.83 256.5,-167.33 256.5,-167.33 256.5,-167.33 256.5,-164.83 254.25,-167.33 256.5,-162.33 256.5,-162.33"/>
</g>
<!-- src/cams/orders.test.ts&#45;&gt;src/cams/orders.ts -->
<g id="edge8" class="edge">
<title>src/cams/orders.test.ts&#45;&gt;src/cams/orders.ts</title>
<path fill="none" stroke="black" d="M100.5,-184.2C100.5,-190.23 100.5,-197 100.5,-197 100.5,-197 354.46,-197 354.46,-197"/>
<polygon fill="black" stroke="black" points="359.46,-197 354.46,-199.25 356.96,-197 354.46,-197 354.46,-197 354.46,-197 356.96,-197 354.46,-194.75 359.46,-197 359.46,-197"/>
</g>
<!-- src/cams/test&#45;utilities/mock&#45;data.ts -->
<g id="node10" class="node">
<title>src/cams/test&#45;utilities/mock&#45;data.ts</title>
<g id="a_node10"><a xlink:href="src/cams/test-utilities/mock-data.ts" xlink:title="mock&#45;data.ts">
<path fill="#ddfeff" stroke="black" d="M201,-248C201,-248 137,-248 137,-248 134,-248 131,-245 131,-242 131,-242 131,-236 131,-236 131,-233 134,-230 137,-230 137,-230 201,-230 201,-230 204,-230 207,-233 207,-236 207,-236 207,-242 207,-242 207,-245 204,-248 201,-248"/>
<text text-anchor="start" x="139" y="-236.8" font-family="Helvetica,sans-Serif" font-size="9.00">mock&#45;data.ts</text>
</a>
</g>
</g>
<!-- src/cams/orders.test.ts&#45;&gt;src/cams/test&#45;utilities/mock&#45;data.ts -->
<g id="edge9" class="edge">
<title>src/cams/orders.test.ts&#45;&gt;src/cams/test&#45;utilities/mock&#45;data.ts</title>
<path fill="none" stroke="black" d="M96.5,-184.17C96.5,-201.87 96.5,-239 96.5,-239 96.5,-239 125.63,-239 125.63,-239"/>
<polygon fill="black" stroke="black" points="130.63,-239 125.63,-241.25 128.13,-239 125.63,-239 125.63,-239 125.63,-239 128.13,-239 125.63,-236.75 130.63,-239 130.63,-239"/>
</g>
<!-- src/cams/test&#45;utilities/mock&#45;data.ts&#45;&gt;node_modules/@faker&#45;js/faker -->
<g id="edge17" class="edge">
<title>src/cams/test&#45;utilities/mock&#45;data.ts&#45;&gt;node_modules/@faker&#45;js/faker</title>
<path fill="none" stroke="black" d="M182.5,-229.88C182.5,-190.02 182.5,-33 182.5,-33 182.5,-33 238.14,-33 238.14,-33"/>
<polygon fill="black" stroke="black" points="243.14,-33 238.14,-35.25 240.64,-33 238.14,-33 238.14,-33 238.14,-33 240.64,-33 238.14,-30.75 243.14,-33 243.14,-33"/>
</g>
<!-- src/cams/test&#45;utilities/mock&#45;data.ts&#45;&gt;src/cams/cases.ts -->
<g id="edge11" class="edge">
<title>src/cams/test&#45;utilities/mock&#45;data.ts&#45;&gt;src/cams/cases.ts</title>
<path fill="none" stroke="black" d="M169.5,-229.84C169.5,-225.61 169.5,-221.5 169.5,-221.5 169.5,-221.5 485.5,-221.5 485.5,-221.5 485.5,-221.5 485.5,-214.24 485.5,-214.24"/>
<polygon fill="black" stroke="black" points="485.5,-209.24 487.75,-214.24 485.5,-211.74 485.5,-214.24 485.5,-214.24 485.5,-214.24 485.5,-211.74 483.25,-214.24 485.5,-209.24 485.5,-209.24"/>
</g>
<!-- src/cams/test&#45;utilities/mock&#45;data.ts&#45;&gt;src/cams/parties.ts -->
<g id="edge14" class="edge">
<title>src/cams/test&#45;utilities/mock&#45;data.ts&#45;&gt;src/cams/parties.ts</title>
<path fill="none" stroke="black" d="M156.5,-229.9C156.5,-212.75 156.5,-177.33 156.5,-177.33 156.5,-177.33 544.29,-177.33 544.29,-177.33"/>
<polygon fill="black" stroke="black" points="549.29,-177.33 544.29,-179.58 546.79,-177.33 544.29,-177.33 544.29,-177.33 544.29,-177.33 546.79,-177.33 544.29,-175.08 549.29,-177.33 549.29,-177.33"/>
</g>
<!-- src/cams/test&#45;utilities/mock&#45;data.ts&#45;&gt;src/cams/history.ts -->
<g id="edge12" class="edge">
<title>src/cams/test&#45;utilities/mock&#45;data.ts&#45;&gt;src/cams/history.ts</title>
<path fill="none" stroke="black" d="M144.5,-229.8C144.5,-207.61 144.5,-153 144.5,-153 144.5,-153 236.91,-153 236.91,-153"/>
<polygon fill="black" stroke="black" points="241.91,-153 236.91,-155.25 239.41,-153 236.91,-153 236.91,-153 236.91,-153 239.41,-153 236.91,-150.75 241.91,-153 241.91,-153"/>
</g>
<!-- src/cams/test&#45;utilities/mock&#45;data.ts&#45;&gt;src/cams/orders.ts -->
<g id="edge13" class="edge">
<title>src/cams/test&#45;utilities/mock&#45;data.ts&#45;&gt;src/cams/orders.ts</title>
<path fill="none" stroke="black" d="M194.5,-229.92C194.5,-218.82 194.5,-201.5 194.5,-201.5 194.5,-201.5 354.44,-201.5 354.44,-201.5"/>
<polygon fill="black" stroke="black" points="359.44,-201.5 354.44,-203.75 356.94,-201.5 354.44,-201.5 354.44,-201.5 354.44,-201.5 356.94,-201.5 354.44,-199.25 359.44,-201.5 359.44,-201.5"/>
</g>
<!-- src/cams/test&#45;utilities/attorneys.mock.ts -->
<g id="node11" class="node">
<title>src/cams/test&#45;utilities/attorneys.mock.ts</title>
<g id="a_node11"><a xlink:href="src/cams/test-utilities/attorneys.mock.ts" xlink:title="attorneys.mock.ts">
<path fill="#ddfeff" stroke="black" d="M313.5,-248C313.5,-248 227.5,-248 227.5,-248 224.5,-248 221.5,-245 221.5,-242 221.5,-242 221.5,-236 221.5,-236 221.5,-233 224.5,-230 227.5,-230 227.5,-230 313.5,-230 313.5,-230 316.5,-230 319.5,-233 319.5,-236 319.5,-236 319.5,-242 319.5,-242 319.5,-245 316.5,-248 313.5,-248"/>
<text text-anchor="start" x="229.5" y="-236.8" font-family="Helvetica,sans-Serif" font-size="9.00">attorneys.mock.ts</text>
</a>
</g>
</g>
<!-- src/cams/test&#45;utilities/mock&#45;data.ts&#45;&gt;src/cams/test&#45;utilities/attorneys.mock.ts -->
<g id="edge15" class="edge">
<title>src/cams/test&#45;utilities/mock&#45;data.ts&#45;&gt;src/cams/test&#45;utilities/attorneys.mock.ts</title>
<path fill="none" stroke="black" d="M207.08,-239C207.08,-239 216.2,-239 216.2,-239"/>
<polygon fill="black" stroke="black" points="221.2,-239 216.2,-241.25 218.7,-239 216.2,-239 216.2,-239 216.2,-239 218.7,-239 216.2,-236.75 221.2,-239 221.2,-239"/>
</g>
<!-- src/cams/test&#45;utilities/offices.mock.ts -->
<g id="node12" class="node">
<title>src/cams/test&#45;utilities/offices.mock.ts</title>
<g id="a_node12"><a xlink:href="src/cams/test-utilities/offices.mock.ts" xlink:title="offices.mock.ts">
<path fill="#ddfeff" stroke="black" d="M307,-278C307,-278 234,-278 234,-278 231,-278 228,-275 228,-272 228,-272 228,-266 228,-266 228,-263 231,-260 234,-260 234,-260 307,-260 307,-260 310,-260 313,-263 313,-266 313,-266 313,-272 313,-272 313,-275 310,-278 307,-278"/>
<text text-anchor="start" x="236" y="-266.8" font-family="Helvetica,sans-Serif" font-size="9.00">offices.mock.ts</text>
</a>
</g>
</g>
<!-- src/cams/test&#45;utilities/mock&#45;data.ts&#45;&gt;src/cams/test&#45;utilities/offices.mock.ts -->
<g id="edge16" class="edge">
<title>src/cams/test&#45;utilities/mock&#45;data.ts&#45;&gt;src/cams/test&#45;utilities/offices.mock.ts</title>
<path fill="none" stroke="black" d="M169.5,-248.16C169.5,-256.99 169.5,-269 169.5,-269 169.5,-269 222.96,-269 222.96,-269"/>
<polygon fill="black" stroke="black" points="227.96,-269 222.96,-271.25 225.46,-269 222.96,-269 222.96,-269 222.96,-269 225.46,-269 222.96,-266.75 227.96,-269 227.96,-269"/>
</g>
<!-- src/cams/test&#45;utilities/offices.mock.ts&#45;&gt;src/cams/courts.ts -->
<g id="edge18" class="edge">
<title>src/cams/test&#45;utilities/offices.mock.ts&#45;&gt;src/cams/courts.ts</title>
<path fill="none" stroke="black" d="M313.14,-269C397.91,-269 579.5,-269 579.5,-269 579.5,-269 579.5,-260.09 579.5,-260.09"/>
<polygon fill="black" stroke="black" points="579.5,-255.09 581.75,-260.09 579.5,-257.59 579.5,-260.09 579.5,-260.09 579.5,-260.09 579.5,-257.59 577.25,-260.09 579.5,-255.09 579.5,-255.09"/>
</g>
<!-- src/date&#45;helper.test.ts -->
<g id="node13" class="node">
<title>src/date&#45;helper.test.ts</title>
<g id="a_node13"><a xlink:href="src/date-helper.test.ts" xlink:title="date&#45;helper.test.ts">
<path fill="#ddfeff" stroke="black" d="M109,-416C109,-416 22,-416 22,-416 19,-416 16,-413 16,-410 16,-410 16,-404 16,-404 16,-401 19,-398 22,-398 22,-398 109,-398 109,-398 112,-398 115,-401 115,-404 115,-404 115,-410 115,-410 115,-413 112,-416 109,-416"/>
<text text-anchor="start" x="24" y="-404.8" font-family="Helvetica,sans-Serif" font-size="9.00">date&#45;helper.test.ts</text>
</a>
</g>
</g>
<!-- src/date&#45;helper.ts -->
<g id="node14" class="node">
<title>src/date&#45;helper.ts</title>
<g id="a_node14"><a xlink:href="src/date-helper.ts" xlink:title="date&#45;helper.ts">
<path fill="#ddfeff" stroke="black" d="M202.5,-416C202.5,-416 135.5,-416 135.5,-416 132.5,-416 129.5,-413 129.5,-410 129.5,-410 129.5,-404 129.5,-404 129.5,-401 132.5,-398 135.5,-398 135.5,-398 202.5,-398 202.5,-398 205.5,-398 208.5,-401 208.5,-404 208.5,-404 208.5,-410 208.5,-410 208.5,-413 205.5,-416 202.5,-416"/>
<text text-anchor="start" x="137.5" y="-404.8" font-family="Helvetica,sans-Serif" font-size="9.00">date&#45;helper.ts</text>
</a>
</g>
</g>
<!-- src/date&#45;helper.test.ts&#45;&gt;src/date&#45;helper.ts -->
<g id="edge19" class="edge">
<title>src/date&#45;helper.test.ts&#45;&gt;src/date&#45;helper.ts</title>
<path fill="none" stroke="black" d="M115.13,-407C115.13,-407 124.36,-407 124.36,-407"/>
<polygon fill="black" stroke="black" points="129.36,-407 124.36,-409.25 126.86,-407 124.36,-407 124.36,-407 124.36,-407 126.86,-407 124.36,-404.75 129.36,-407 129.36,-407"/>
</g>
<!-- src/feature&#45;flags.ts -->
<g id="node15" class="node">
<title>src/feature&#45;flags.ts</title>
<g id="a_node15"><a xlink:href="src/feature-flags.ts" xlink:title="no&#45;orphans">
<path fill="#ccffcc" stroke="orange" d="M102,-386C102,-386 29,-386 29,-386 26,-386 23,-383 23,-380 23,-380 23,-374 23,-374 23,-371 26,-368 29,-368 29,-368 102,-368 102,-368 105,-368 108,-371 108,-374 108,-374 108,-380 108,-380 108,-383 105,-386 102,-386"/>
<text text-anchor="start" x="31" y="-374.8" font-family="Helvetica,sans-Serif" font-size="9.00" fill="orange">feature&#45;flags.ts</text>
</a>
</g>
</g>
<!-- src/index.ts -->
<g id="node16" class="node">
<title>src/index.ts</title>
<g id="a_node16"><a xlink:href="src/index.ts" xlink:title="no&#45;orphans">
<path fill="#ccffcc" stroke="orange" d="M86.5,-356C86.5,-356 44.5,-356 44.5,-356 41.5,-356 38.5,-353 38.5,-350 38.5,-350 38.5,-344 38.5,-344 38.5,-341 41.5,-338 44.5,-338 44.5,-338 86.5,-338 86.5,-338 89.5,-338 92.5,-341 92.5,-344 92.5,-344 92.5,-350 92.5,-350 92.5,-353 89.5,-356 86.5,-356"/>
<text text-anchor="start" x="47" y="-344.8" font-family="Helvetica,sans-Serif" font-size="9.00" fill="orange">index.ts</text>
</a>
</g>
</g>
<!-- src/name&#45;helper.test.ts -->
<g id="node17" class="node">
<title>src/name&#45;helper.test.ts</title>
<g id="a_node17"><a xlink:href="src/name-helper.test.ts" xlink:title="name&#45;helper.test.ts">
<path fill="#ddfeff" stroke="black" d="M433.5,-128C433.5,-128 341.5,-128 341.5,-128 338.5,-128 335.5,-125 335.5,-122 335.5,-122 335.5,-116 335.5,-116 335.5,-113 338.5,-110 341.5,-110 341.5,-110 433.5,-110 433.5,-110 436.5,-110 439.5,-113 439.5,-116 439.5,-116 439.5,-122 439.5,-122 439.5,-125 436.5,-128 433.5,-128"/>
<text text-anchor="start" x="343.5" y="-116.8" font-family="Helvetica,sans-Serif" font-size="9.00">name&#45;helper.test.ts</text>
</a>
</g>
</g>
<!-- src/name&#45;helper.ts -->
<g id="node18" class="node">
<title>src/name&#45;helper.ts</title>
<g id="a_node18"><a xlink:href="src/name-helper.ts" xlink:title="name&#45;helper.ts">
<path fill="#ddfeff" stroke="black" d="M530.5,-128C530.5,-128 458.5,-128 458.5,-128 455.5,-128 452.5,-125 452.5,-122 452.5,-122 452.5,-116 452.5,-116 452.5,-113 455.5,-110 458.5,-110 458.5,-110 530.5,-110 530.5,-110 533.5,-110 536.5,-113 536.5,-116 536.5,-116 536.5,-122 536.5,-122 536.5,-125 533.5,-128 530.5,-128"/>
<text text-anchor="start" x="460.5" y="-116.8" font-family="Helvetica,sans-Serif" font-size="9.00">name&#45;helper.ts</text>
</a>
</g>
</g>
<!-- src/name&#45;helper.test.ts&#45;&gt;src/name&#45;helper.ts -->
<g id="edge20" class="edge">
<title>src/name&#45;helper.test.ts&#45;&gt;src/name&#45;helper.ts</title>
<path fill="none" stroke="black" d="M439.75,-119C439.75,-119 447.4,-119 447.4,-119"/>
<polygon fill="black" stroke="black" points="452.4,-119 447.4,-121.25 449.9,-119 447.4,-119 447.4,-119 447.4,-119 449.9,-119 447.4,-116.75 452.4,-119 452.4,-119"/>
</g>
<!-- src/name&#45;helper.ts&#45;&gt;src/cams/parties.ts -->
<g id="edge21" class="edge">
<title>src/name&#45;helper.ts&#45;&gt;src/cams/parties.ts</title>
<path fill="none" stroke="black" d="M529.5,-128.16C529.5,-143.93 529.5,-174.5 529.5,-174.5 529.5,-174.5 544.35,-174.5 544.35,-174.5"/>
<polygon fill="black" stroke="black" points="549.35,-174.5 544.35,-176.75 546.85,-174.5 544.35,-174.5 544.35,-174.5 544.35,-174.5 546.85,-174.5 544.35,-172.25 549.35,-174.5 549.35,-174.5"/>
</g>
</g>
</svg>
